%TF.GenerationSoftware,KiCad,Pcbnew,9.0.7*%
%TF.CreationDate,2026-05-10T23:40:39+05:30*%
%TF.ProjectId,splitboard right,73706c69-7462-46f6-9172-642072696768,rev?*%
%TF.SameCoordinates,Original*%
%TF.FileFunction,Paste,Top*%
%TF.FilePolarity,Positive*%
%FSLAX46Y46*%
G04 Gerber Fmt 4.6, Leading zero omitted, Abs format (unit mm)*
G04 Created by KiCad (PCBNEW 9.0.7) date 2026-05-10 23:40:39*
%MOMM*%
%LPD*%
G01*
G04 APERTURE LIST*
%ADD10R,1.500000X0.820000*%
G04 APERTURE END LIST*
D10*
%TO.C,L50*%
X70510000Y-26070000D03*
X70510000Y-24570000D03*
X76110000Y-24570000D03*
X76110000Y-26070000D03*
%TD*%
%TO.C,L39*%
X205110000Y-26390000D03*
X205110000Y-24890000D03*
X210710000Y-24890000D03*
X210710000Y-26390000D03*
%TD*%
%TO.C,L47*%
X103650000Y-25560250D03*
X103650000Y-24060250D03*
X109250000Y-24060250D03*
X109250000Y-25560250D03*
%TD*%
%TO.C,L48*%
X90204682Y-26260000D03*
X90204682Y-24760000D03*
X95804682Y-24760000D03*
X95804682Y-26260000D03*
%TD*%
%TO.C,L40*%
X194070000Y-26140250D03*
X194070000Y-24640250D03*
X199670000Y-24640250D03*
X199670000Y-26140250D03*
%TD*%
%TO.C,L43*%
X160260000Y-23790250D03*
X160260000Y-22290250D03*
X165860000Y-22290250D03*
X165860000Y-23790250D03*
%TD*%
%TO.C,L45*%
X132760000Y-21640250D03*
X132760000Y-20140250D03*
X138360000Y-20140250D03*
X138360000Y-21640250D03*
%TD*%
%TO.C,L41*%
X181610000Y-26040000D03*
X181610000Y-24540000D03*
X187210000Y-24540000D03*
X187210000Y-26040000D03*
%TD*%
%TO.C,L49*%
X80180000Y-26160000D03*
X80180000Y-24660000D03*
X85780000Y-24660000D03*
X85780000Y-26160000D03*
%TD*%
%TO.C,L46*%
X116600000Y-23980250D03*
X116600000Y-22480250D03*
X122200000Y-22480250D03*
X122200000Y-23980250D03*
%TD*%
%TO.C,L42*%
X170990000Y-25800000D03*
X170990000Y-24300000D03*
X176590000Y-24300000D03*
X176590000Y-25800000D03*
%TD*%
%TO.C,L44*%
X146580000Y-23670000D03*
X146580000Y-22170000D03*
X152180000Y-22170000D03*
X152180000Y-23670000D03*
%TD*%
M02*
