%TF.GenerationSoftware,KiCad,Pcbnew,9.0.7*%
%TF.CreationDate,2026-05-10T23:40:39+05:30*%
%TF.ProjectId,splitboard right,73706c69-7462-46f6-9172-642072696768,rev?*%
%TF.SameCoordinates,Original*%
%TF.FileFunction,Soldermask,Top*%
%TF.FilePolarity,Negative*%
%FSLAX46Y46*%
G04 Gerber Fmt 4.6, Leading zero omitted, Abs format (unit mm)*
G04 Created by KiCad (PCBNEW 9.0.7) date 2026-05-10 23:40:39*
%MOMM*%
%LPD*%
G01*
G04 APERTURE LIST*
G04 Aperture macros list*
%AMRoundRect*
0 Rectangle with rounded corners*
0 $1 Rounding radius*
0 $2 $3 $4 $5 $6 $7 $8 $9 X,Y pos of 4 corners*
0 Add a 4 corners polygon primitive as box body*
4,1,4,$2,$3,$4,$5,$6,$7,$8,$9,$2,$3,0*
0 Add four circle primitives for the rounded corners*
1,1,$1+$1,$2,$3*
1,1,$1+$1,$4,$5*
1,1,$1+$1,$6,$7*
1,1,$1+$1,$8,$9*
0 Add four rect primitives between the rounded corners*
20,1,$1+$1,$2,$3,$4,$5,0*
20,1,$1+$1,$4,$5,$6,$7,0*
20,1,$1+$1,$6,$7,$8,$9,0*
20,1,$1+$1,$8,$9,$2,$3,0*%
%AMHorizOval*
0 Thick line with rounded ends*
0 $1 width*
0 $2 $3 position (X,Y) of the first rounded end (center of the circle)*
0 $4 $5 position (X,Y) of the second rounded end (center of the circle)*
0 Add line between two ends*
20,1,$1,$2,$3,$4,$5,0*
0 Add two circle primitives to create the rounded ends*
1,1,$1,$2,$3*
1,1,$1,$4,$5*%
G04 Aperture macros list end*
%ADD10O,1.524800X2.845600*%
%ADD11C,1.750000*%
%ADD12C,3.050000*%
%ADD13C,4.000000*%
%ADD14R,1.500000X0.820000*%
%ADD15HorizOval,1.524800X-0.378790X0.540968X0.378790X-0.540968X0*%
%ADD16RoundRect,0.250000X-1.050000X-0.550000X1.050000X-0.550000X1.050000X0.550000X-1.050000X0.550000X0*%
%ADD17O,2.600000X1.600000*%
G04 APERTURE END LIST*
D10*
%TO.C,D12*%
X162810000Y-59000000D03*
X162810000Y-51380000D03*
%TD*%
D11*
%TO.C,SW36*%
X38100000Y-126206250D03*
D12*
X37683439Y-123397162D03*
D13*
X42261292Y-123292482D03*
D12*
X41428170Y-117674305D03*
D11*
X46422584Y-120378714D03*
%TD*%
D14*
%TO.C,L50*%
X70510000Y-26070000D03*
X70510000Y-24570000D03*
X76110000Y-24570000D03*
X76110000Y-26070000D03*
%TD*%
D10*
%TO.C,D11*%
X143955000Y-59160000D03*
X143955000Y-51540000D03*
%TD*%
%TO.C,D29*%
X124480000Y-115150000D03*
X124480000Y-107530000D03*
%TD*%
D14*
%TO.C,L39*%
X205110000Y-26390000D03*
X205110000Y-24890000D03*
X210710000Y-24890000D03*
X210710000Y-26390000D03*
%TD*%
D11*
%TO.C,SW34*%
X70094794Y-138686888D03*
D12*
X69678233Y-135877800D03*
D13*
X74256086Y-135773120D03*
D12*
X73422964Y-130154943D03*
D11*
X78417378Y-132859352D03*
%TD*%
D15*
%TO.C,D37*%
X64315052Y-141189628D03*
X59944400Y-134947690D03*
%TD*%
%TO.C,D36*%
X54665326Y-125390969D03*
X50294674Y-119149031D03*
%TD*%
D10*
%TO.C,D4*%
X143320000Y-37440000D03*
X143320000Y-29820000D03*
%TD*%
%TO.C,D5*%
X162550000Y-39970000D03*
X162550000Y-32350000D03*
%TD*%
D11*
%TO.C,SW38*%
X59953263Y-157415943D03*
D12*
X59536702Y-154606855D03*
D13*
X64114555Y-154502175D03*
D12*
X63281433Y-148883998D03*
D11*
X68275847Y-151588407D03*
%TD*%
D10*
%TO.C,D6*%
X181004682Y-42618989D03*
X181004682Y-34998989D03*
%TD*%
D11*
%TO.C,SW27*%
X168124682Y-91508989D03*
D12*
X169394682Y-88968989D03*
D13*
X173204682Y-91508989D03*
D12*
X175744682Y-86428989D03*
D11*
X178284682Y-91508989D03*
%TD*%
%TO.C,SW15*%
X72874682Y-86746489D03*
D12*
X74144682Y-84206489D03*
D13*
X77954682Y-86746489D03*
D12*
X80494682Y-81666489D03*
D11*
X83034682Y-86746489D03*
%TD*%
%TO.C,SW17*%
X110974682Y-70077739D03*
D12*
X112244682Y-67537739D03*
D13*
X116054682Y-70077739D03*
D12*
X118594682Y-64997739D03*
D11*
X121134682Y-70077739D03*
%TD*%
%TO.C,SW4*%
X130024682Y-29596489D03*
D12*
X131294682Y-27056489D03*
D13*
X135104682Y-29596489D03*
D12*
X137644682Y-24516489D03*
D11*
X140184682Y-29596489D03*
%TD*%
D14*
%TO.C,L47*%
X103650000Y-25560250D03*
X103650000Y-24060250D03*
X109250000Y-24060250D03*
X109250000Y-25560250D03*
%TD*%
D11*
%TO.C,SW22*%
X85699640Y-127760257D03*
D12*
X85283079Y-124951169D03*
D13*
X89860932Y-124846489D03*
D12*
X89027810Y-119228312D03*
D11*
X94022224Y-121932721D03*
%TD*%
D14*
%TO.C,L48*%
X90204682Y-26260000D03*
X90204682Y-24760000D03*
X95804682Y-24760000D03*
X95804682Y-26260000D03*
%TD*%
%TO.C,L40*%
X194070000Y-26140250D03*
X194070000Y-24640250D03*
X199670000Y-24640250D03*
X199670000Y-26140250D03*
%TD*%
D10*
%TO.C,D1*%
X86890000Y-42640000D03*
X86890000Y-35020000D03*
%TD*%
%TO.C,D10*%
X123854682Y-59287739D03*
X123854682Y-51667739D03*
%TD*%
D11*
%TO.C,SW10*%
X110974682Y-51027739D03*
D12*
X112244682Y-48487739D03*
D13*
X116054682Y-51027739D03*
D12*
X118594682Y-45947739D03*
D11*
X121134682Y-51027739D03*
%TD*%
%TO.C,SW32*%
X168124682Y-110558989D03*
D12*
X169394682Y-108018989D03*
D13*
X173204682Y-110558989D03*
D12*
X175744682Y-105478989D03*
D11*
X178284682Y-110558989D03*
%TD*%
D14*
%TO.C,L43*%
X160260000Y-23790250D03*
X160260000Y-22290250D03*
X165860000Y-22290250D03*
X165860000Y-23790250D03*
%TD*%
D11*
%TO.C,SW20*%
X168124682Y-72458989D03*
D12*
X169394682Y-69918989D03*
D13*
X173204682Y-72458989D03*
D12*
X175744682Y-67378989D03*
D11*
X178284682Y-72458989D03*
%TD*%
D10*
%TO.C,D30*%
X142904682Y-112506489D03*
X142904682Y-104886489D03*
%TD*%
%TO.C,D15*%
X86810000Y-91360000D03*
X86810000Y-83740000D03*
%TD*%
%TO.C,D8*%
X86700000Y-63130000D03*
X86700000Y-55510000D03*
%TD*%
%TO.C,D31*%
X162670000Y-115740000D03*
X162670000Y-108120000D03*
%TD*%
D11*
%TO.C,SW35*%
X53704847Y-115279619D03*
D12*
X53288286Y-112470531D03*
D13*
X57866139Y-112365851D03*
D12*
X57033017Y-106747674D03*
D11*
X62027431Y-109452083D03*
%TD*%
%TO.C,SW6*%
X168124682Y-34358989D03*
D12*
X169394682Y-31818989D03*
D13*
X173204682Y-34358989D03*
D12*
X175744682Y-29278989D03*
D11*
X178284682Y-34358989D03*
%TD*%
D14*
%TO.C,L45*%
X132760000Y-21640250D03*
X132760000Y-20140250D03*
X138360000Y-20140250D03*
X138360000Y-21640250D03*
%TD*%
D10*
%TO.C,D14*%
X206000000Y-59130000D03*
X206000000Y-51510000D03*
%TD*%
%TO.C,D3*%
X124680000Y-40010000D03*
X124680000Y-32390000D03*
%TD*%
D11*
%TO.C,SW8*%
X72874682Y-58171489D03*
D12*
X74144682Y-55631489D03*
D13*
X77954682Y-58171489D03*
D12*
X80494682Y-53091489D03*
D11*
X83034682Y-58171489D03*
%TD*%
%TO.C,SW12*%
X149074682Y-51027739D03*
D12*
X150344682Y-48487739D03*
D13*
X154154682Y-51027739D03*
D12*
X156694682Y-45947739D03*
D11*
X159234682Y-51027739D03*
%TD*%
D10*
%TO.C,D9*%
X105500000Y-60830000D03*
X105500000Y-53210000D03*
%TD*%
D15*
%TO.C,D35*%
X68685326Y-111960969D03*
X64314674Y-105719031D03*
%TD*%
D10*
%TO.C,D17*%
X124790000Y-78250000D03*
X124790000Y-70630000D03*
%TD*%
%TO.C,D2*%
X105700000Y-42650000D03*
X105700000Y-35030000D03*
%TD*%
D11*
%TO.C,SW26*%
X149074682Y-89127739D03*
D12*
X150344682Y-86587739D03*
D13*
X154154682Y-89127739D03*
D12*
X156694682Y-84047739D03*
D11*
X159234682Y-89127739D03*
%TD*%
%TO.C,SW24*%
X110974682Y-89127739D03*
D12*
X112244682Y-86587739D03*
D13*
X116054682Y-89127739D03*
D12*
X118594682Y-84047739D03*
D11*
X121134682Y-89127739D03*
%TD*%
D10*
%TO.C,D23*%
X105480000Y-98050000D03*
X105480000Y-90430000D03*
%TD*%
D14*
%TO.C,L41*%
X181610000Y-26040000D03*
X181610000Y-24540000D03*
X187210000Y-24540000D03*
X187210000Y-26040000D03*
%TD*%
D11*
%TO.C,SW1*%
X72874682Y-34358989D03*
D12*
X74144682Y-31818989D03*
D13*
X77954682Y-34358989D03*
D12*
X80494682Y-29278989D03*
D11*
X83034682Y-34358989D03*
%TD*%
D10*
%TO.C,D13*%
X181990000Y-60830000D03*
X181990000Y-53210000D03*
%TD*%
D11*
%TO.C,SW28*%
X191937182Y-91508989D03*
D12*
X193207182Y-88968989D03*
D13*
X197017182Y-91508989D03*
D12*
X199557182Y-86428989D03*
D11*
X202097182Y-91508989D03*
%TD*%
%TO.C,SW37*%
X49026632Y-141811096D03*
D12*
X48610071Y-139002008D03*
D13*
X53187924Y-138897328D03*
D12*
X52354802Y-133279151D03*
D11*
X57349216Y-135983560D03*
%TD*%
D14*
%TO.C,L49*%
X80180000Y-26160000D03*
X80180000Y-24660000D03*
X85780000Y-24660000D03*
X85780000Y-26160000D03*
%TD*%
D10*
%TO.C,D25*%
X143390000Y-94620000D03*
X143390000Y-87000000D03*
%TD*%
D15*
%TO.C,D22*%
X101675326Y-125670969D03*
X97304674Y-119429031D03*
%TD*%
D11*
%TO.C,SW30*%
X130024682Y-105796489D03*
D12*
X131294682Y-103256489D03*
D13*
X135104682Y-105796489D03*
D12*
X137644682Y-100716489D03*
D11*
X140184682Y-105796489D03*
%TD*%
D10*
%TO.C,D33*%
X200790000Y-118150000D03*
X200790000Y-110530000D03*
%TD*%
D14*
%TO.C,L46*%
X116600000Y-23980250D03*
X116600000Y-22480250D03*
X122200000Y-22480250D03*
X122200000Y-23980250D03*
%TD*%
D11*
%TO.C,SW2*%
X91924682Y-34358989D03*
D12*
X93194682Y-31818989D03*
D13*
X97004682Y-34358989D03*
D12*
X99544682Y-29278989D03*
D11*
X102084682Y-34358989D03*
%TD*%
%TO.C,SW23*%
X91924682Y-91508989D03*
D12*
X93194682Y-88968989D03*
D13*
X97004682Y-91508989D03*
D12*
X99544682Y-86428989D03*
D11*
X102084682Y-91508989D03*
%TD*%
%TO.C,SW33*%
X187174682Y-110558989D03*
D12*
X188444682Y-108018989D03*
D13*
X192254682Y-110558989D03*
D12*
X194794682Y-105478989D03*
D11*
X197334682Y-110558989D03*
%TD*%
D14*
%TO.C,L42*%
X170990000Y-25800000D03*
X170990000Y-24300000D03*
X176590000Y-24300000D03*
X176590000Y-25800000D03*
%TD*%
D11*
%TO.C,SW5*%
X149074682Y-31977739D03*
D12*
X150344682Y-29437739D03*
D13*
X154154682Y-31977739D03*
D12*
X156694682Y-26897739D03*
D11*
X159234682Y-31977739D03*
%TD*%
D16*
%TO.C,A1*%
X41610000Y-25820000D03*
D17*
X41610000Y-28360000D03*
X41610000Y-30900000D03*
X41610000Y-33440000D03*
X41610000Y-35980000D03*
X41610000Y-38520000D03*
X41610000Y-41060000D03*
X41610000Y-43600000D03*
X41610000Y-46140000D03*
X41610000Y-48680000D03*
X41610000Y-51220000D03*
X41610000Y-53760000D03*
X41610000Y-56300000D03*
X41610000Y-58840000D03*
X41610000Y-61380000D03*
X41610000Y-63920000D03*
X61330000Y-63920000D03*
X61330000Y-61380000D03*
X61330000Y-58840000D03*
X61330000Y-56300000D03*
X61330000Y-53760000D03*
X61330000Y-51220000D03*
X61330000Y-48680000D03*
X61330000Y-46140000D03*
X61330000Y-43600000D03*
X61330000Y-41060000D03*
X61330000Y-38520000D03*
X61330000Y-35980000D03*
%TD*%
D15*
%TO.C,D38*%
X75220652Y-154991938D03*
X70850000Y-148750000D03*
%TD*%
D10*
%TO.C,D7*%
X205740000Y-42350000D03*
X205740000Y-34730000D03*
%TD*%
D11*
%TO.C,SW16*%
X91924682Y-72458989D03*
D12*
X93194682Y-69918989D03*
D13*
X97004682Y-72458989D03*
D12*
X99544682Y-67378989D03*
D11*
X102084682Y-72458989D03*
%TD*%
%TO.C,SW18*%
X130024682Y-67696489D03*
D12*
X131294682Y-65156489D03*
D13*
X135104682Y-67696489D03*
D12*
X137644682Y-62616489D03*
D11*
X140184682Y-67696489D03*
%TD*%
D10*
%TO.C,D19*%
X162430000Y-78440000D03*
X162430000Y-70820000D03*
%TD*%
D11*
%TO.C,SW14*%
X191937182Y-53408989D03*
D12*
X193207182Y-50868989D03*
D13*
X197017182Y-53408989D03*
D12*
X199557182Y-48328989D03*
D11*
X202097182Y-53408989D03*
%TD*%
%TO.C,SW31*%
X149074682Y-108177739D03*
D12*
X150344682Y-105637739D03*
D13*
X154154682Y-108177739D03*
D12*
X156694682Y-103097739D03*
D11*
X159234682Y-108177739D03*
%TD*%
%TO.C,SW21*%
X191937182Y-72458989D03*
D12*
X193207182Y-69918989D03*
D13*
X197017182Y-72458989D03*
D12*
X199557182Y-67378989D03*
D11*
X202097182Y-72458989D03*
%TD*%
%TO.C,SW7*%
X191937182Y-34358989D03*
D12*
X193207182Y-31818989D03*
D13*
X197017182Y-34358989D03*
D12*
X199557182Y-29278989D03*
D11*
X202097182Y-34358989D03*
%TD*%
%TO.C,SW11*%
X130024682Y-48646489D03*
D12*
X131294682Y-46106489D03*
D13*
X135104682Y-48646489D03*
D12*
X137644682Y-43566489D03*
D11*
X140184682Y-48646489D03*
%TD*%
D10*
%TO.C,D26*%
X161954682Y-97387739D03*
X161954682Y-89767739D03*
%TD*%
D11*
%TO.C,SW19*%
X149074682Y-70077739D03*
D12*
X150344682Y-67537739D03*
D13*
X154154682Y-70077739D03*
D12*
X156694682Y-64997739D03*
D11*
X159234682Y-70077739D03*
%TD*%
%TO.C,SW13*%
X168124682Y-53408989D03*
D12*
X169394682Y-50868989D03*
D13*
X173204682Y-53408989D03*
D12*
X175744682Y-48328989D03*
D11*
X178284682Y-53408989D03*
%TD*%
%TO.C,SW29*%
X110974682Y-108177739D03*
D12*
X112244682Y-105637739D03*
D13*
X116054682Y-108177739D03*
D12*
X118594682Y-103097739D03*
D11*
X121134682Y-108177739D03*
%TD*%
D10*
%TO.C,D32*%
X181004682Y-117970000D03*
X181004682Y-110350000D03*
%TD*%
%TO.C,D24*%
X124590000Y-95950000D03*
X124590000Y-88330000D03*
%TD*%
D14*
%TO.C,L44*%
X146580000Y-23670000D03*
X146580000Y-22170000D03*
X152180000Y-22170000D03*
X152180000Y-23670000D03*
%TD*%
D11*
%TO.C,SW9*%
X91924682Y-53408989D03*
D12*
X93194682Y-50868989D03*
D13*
X97004682Y-53408989D03*
D12*
X99544682Y-48328989D03*
D11*
X102084682Y-53408989D03*
%TD*%
D15*
%TO.C,D34*%
X85935326Y-137640969D03*
X81564674Y-131399031D03*
%TD*%
D10*
%TO.C,D18*%
X143530000Y-75670000D03*
X143530000Y-68050000D03*
%TD*%
%TO.C,D27*%
X181580000Y-98980000D03*
X181580000Y-91360000D03*
%TD*%
D11*
%TO.C,SW25*%
X130024682Y-86746489D03*
D12*
X131294682Y-84206489D03*
D13*
X135104682Y-86746489D03*
D12*
X137644682Y-81666489D03*
D11*
X140184682Y-86746489D03*
%TD*%
D10*
%TO.C,D16*%
X105400000Y-79010000D03*
X105400000Y-71390000D03*
%TD*%
%TO.C,D20*%
X181540000Y-80210000D03*
X181540000Y-72590000D03*
%TD*%
%TO.C,D28*%
X205970000Y-97910000D03*
X205970000Y-90290000D03*
%TD*%
%TO.C,D21*%
X206140000Y-78760000D03*
X206140000Y-71140000D03*
%TD*%
D11*
%TO.C,SW3*%
X110974682Y-31977739D03*
D12*
X112244682Y-29437739D03*
D13*
X116054682Y-31977739D03*
D12*
X118594682Y-26897739D03*
D11*
X121134682Y-31977739D03*
%TD*%
M02*
