%TF.GenerationSoftware,KiCad,Pcbnew,9.0.7*%
%TF.CreationDate,2026-05-10T23:40:42+05:30*%
%TF.ProjectId,splitboard right,73706c69-7462-46f6-9172-642072696768,rev?*%
%TF.SameCoordinates,Original*%
%TF.FileFunction,Plated,1,2,PTH,Drill*%
%TF.FilePolarity,Positive*%
%FSLAX46Y46*%
G04 Gerber Fmt 4.6, Leading zero omitted, Abs format (unit mm)*
G04 Created by KiCad (PCBNEW 9.0.7) date 2026-05-10 23:40:42*
%MOMM*%
%LPD*%
G01*
G04 APERTURE LIST*
%TA.AperFunction,ViaDrill*%
%ADD10C,0.300000*%
%TD*%
%TA.AperFunction,ComponentDrill*%
%ADD11C,0.812800*%
%TD*%
%TA.AperFunction,ComponentDrill*%
%ADD12C,1.000000*%
%TD*%
G04 APERTURE END LIST*
D10*
X41300000Y-128290000D03*
X44280000Y-137620000D03*
X44300000Y-131140000D03*
X45570000Y-137570000D03*
X50910000Y-123400000D03*
X51400000Y-124970000D03*
X51640000Y-148230000D03*
X52710000Y-143710000D03*
X52810000Y-122000000D03*
X56650000Y-117010000D03*
X58960000Y-128610000D03*
X59670000Y-129410000D03*
X59810000Y-162320000D03*
X61420000Y-139080000D03*
X63390000Y-159140000D03*
X63670000Y-120550000D03*
X63820000Y-101700000D03*
X66220000Y-131900000D03*
X66430000Y-120580000D03*
X66990000Y-142210000D03*
X67730000Y-65930000D03*
X67750000Y-69790000D03*
X67750000Y-101750000D03*
X67800000Y-130890000D03*
X68550000Y-69820000D03*
X68700000Y-66030000D03*
X69370000Y-41060000D03*
X69750000Y-51210000D03*
X69770000Y-50250000D03*
X69790000Y-49050000D03*
X69880000Y-35360000D03*
X69960000Y-47650000D03*
X70010000Y-68800000D03*
X70040000Y-67950000D03*
X70050000Y-45160000D03*
X70070000Y-67050000D03*
X70790000Y-82060000D03*
X70850000Y-69810000D03*
X71850000Y-36330000D03*
X71850000Y-69070000D03*
X71870000Y-45550000D03*
X71900000Y-49000000D03*
X72060000Y-68220000D03*
X72080000Y-67200000D03*
X72100000Y-50130000D03*
X72120000Y-47720000D03*
X72130000Y-51210000D03*
X72150000Y-147530000D03*
X73210000Y-140800000D03*
X73620000Y-91050000D03*
X73620735Y-121380735D03*
X74090000Y-61030000D03*
X74320000Y-119820000D03*
X74330000Y-149170000D03*
X74530000Y-37210000D03*
X75690000Y-117350000D03*
X76000000Y-43740000D03*
X76220000Y-112740000D03*
X76250000Y-107690000D03*
X76560000Y-23360000D03*
X78070000Y-118990000D03*
X79130000Y-119080000D03*
X80240000Y-117840000D03*
X83940000Y-109810000D03*
X84670000Y-61230000D03*
X84750000Y-108670000D03*
X84860000Y-92410000D03*
X85410000Y-40010000D03*
X86440000Y-23770000D03*
X86510000Y-111290000D03*
X86650000Y-67180000D03*
X88010000Y-80190000D03*
X88140000Y-109590000D03*
X88280000Y-96530000D03*
X88520000Y-47440000D03*
X88700000Y-129280000D03*
X88770000Y-48420000D03*
X88880000Y-46380000D03*
X88940000Y-42610000D03*
X88980000Y-65950000D03*
X89010000Y-44240000D03*
X89150000Y-62220000D03*
X89180000Y-80860000D03*
X89860000Y-78630000D03*
X89900000Y-71510000D03*
X89919682Y-88968989D03*
X89920000Y-81760000D03*
X90540000Y-94760000D03*
X90710000Y-45830000D03*
X90710000Y-80820000D03*
X90830000Y-79370000D03*
X90920000Y-46940000D03*
X90970000Y-47950000D03*
X90970000Y-65200000D03*
X91050000Y-41020000D03*
X91080000Y-43660000D03*
X91710000Y-81640000D03*
X93100000Y-95491000D03*
X93190000Y-101500000D03*
X93410000Y-56580000D03*
X93710000Y-75690000D03*
X93870000Y-37280000D03*
X94960000Y-62250000D03*
X95560000Y-100901000D03*
X96560000Y-23510000D03*
X96720000Y-104790000D03*
X98020000Y-106490000D03*
X99630000Y-106860000D03*
X99690000Y-104820000D03*
X101140000Y-43430000D03*
X101890000Y-56590000D03*
X102040000Y-59100000D03*
X102150000Y-117980000D03*
X102230000Y-63250000D03*
X102330000Y-61060000D03*
X103130000Y-116860000D03*
X103540000Y-44280000D03*
X103810000Y-38790000D03*
X103980000Y-119830000D03*
X104100000Y-60960000D03*
X104600000Y-118610000D03*
X106350000Y-113780000D03*
X106610000Y-101670000D03*
X107050000Y-119770000D03*
X107060000Y-99720000D03*
X107200000Y-62540000D03*
X107200000Y-64190000D03*
X107900000Y-78950000D03*
X107910000Y-80990000D03*
X107940000Y-42600000D03*
X107940000Y-43670000D03*
X107940000Y-59730000D03*
X108010000Y-117180000D03*
X108090000Y-45610000D03*
X108130000Y-44540000D03*
X108180000Y-76090000D03*
X108969682Y-67537739D03*
X109100000Y-48250000D03*
X109760000Y-23260000D03*
X109770000Y-76120000D03*
X109810000Y-44350000D03*
X109860000Y-63210000D03*
X109870000Y-45520000D03*
X109920000Y-43520000D03*
X110010000Y-38710000D03*
X110110000Y-78940000D03*
X110170000Y-42570000D03*
X110200000Y-80960000D03*
X110260000Y-115360000D03*
X110880000Y-40360000D03*
X111590000Y-99510000D03*
X112020000Y-92200000D03*
X112120000Y-110930000D03*
X112140000Y-44750000D03*
X112220000Y-34970000D03*
X112830000Y-72600000D03*
X112980000Y-53980000D03*
X113780000Y-99470000D03*
X114090000Y-59730000D03*
X120770000Y-99510000D03*
X121000000Y-61860000D03*
X121020000Y-92320000D03*
X121040000Y-94900000D03*
X121110000Y-59440000D03*
X121330000Y-53950000D03*
X121400000Y-98730000D03*
X121420000Y-56550000D03*
X122550000Y-59390000D03*
X122560000Y-21860000D03*
X122620000Y-36340000D03*
X122680000Y-98640000D03*
X123110000Y-99550000D03*
X126860000Y-43170000D03*
X126920000Y-78240000D03*
X126940000Y-74230000D03*
X127030000Y-42250000D03*
X127050000Y-59210000D03*
X127260000Y-38250000D03*
X128780000Y-41970000D03*
X128870000Y-38250000D03*
X128880000Y-59180000D03*
X129010000Y-43130000D03*
X129030000Y-78220000D03*
X129140000Y-74100000D03*
X129190000Y-36200000D03*
X129980000Y-97630000D03*
X130500000Y-99400000D03*
X131120000Y-51870000D03*
X131430000Y-108730000D03*
X131610000Y-41540000D03*
X131660000Y-70700000D03*
X131700000Y-32500000D03*
X131880000Y-89000000D03*
X134570000Y-100380000D03*
X135080000Y-97620000D03*
X137460000Y-96680000D03*
X138930000Y-97160000D03*
X139670000Y-20310000D03*
X140920000Y-95820000D03*
X140920000Y-97140000D03*
X140930000Y-111260000D03*
X140960000Y-109020000D03*
X140980000Y-92480000D03*
X141590000Y-33880000D03*
X142080000Y-53610000D03*
X143020000Y-91000000D03*
X143780000Y-97803550D03*
X144580000Y-40010000D03*
X144710000Y-43620000D03*
X145980000Y-78730000D03*
X146030000Y-39640000D03*
X146120000Y-53980000D03*
X146120000Y-97100000D03*
X146220000Y-51500000D03*
X146320000Y-75120000D03*
X146469682Y-62080000D03*
X146690000Y-101200000D03*
X147990000Y-75930000D03*
X148000000Y-40640000D03*
X148020000Y-52780000D03*
X148050000Y-78770000D03*
X148070000Y-97100000D03*
X148080000Y-37920000D03*
X148540000Y-39720000D03*
X149850000Y-55060000D03*
X149990000Y-74390000D03*
X150120000Y-91980000D03*
X150260000Y-34900000D03*
X150440000Y-110840000D03*
X152450000Y-62040000D03*
X152870000Y-101780000D03*
X152890000Y-98140000D03*
X153810000Y-22160000D03*
X157020000Y-39890000D03*
X157060000Y-54340000D03*
X157070000Y-42110000D03*
X158950000Y-98280000D03*
X159530000Y-40390000D03*
X160030000Y-42040000D03*
X160450000Y-36410000D03*
X163680000Y-43050000D03*
X163700000Y-100550000D03*
X164800000Y-62860000D03*
X165130000Y-61500000D03*
X165230000Y-76390000D03*
X167000000Y-76910000D03*
X167070000Y-22310000D03*
X167110000Y-45250000D03*
X167170000Y-61550000D03*
X167230000Y-62820000D03*
X167330000Y-81230000D03*
X167360000Y-39800000D03*
X167450000Y-43620000D03*
X169430000Y-61610000D03*
X169450000Y-56610000D03*
X169480000Y-37000000D03*
X169770000Y-94910000D03*
X169770000Y-114240000D03*
X169850000Y-75430000D03*
X170910000Y-100190000D03*
X171120000Y-61630000D03*
X173330000Y-99770000D03*
X175840000Y-61110000D03*
X175880000Y-63690000D03*
X178040000Y-24110000D03*
X178370000Y-61980000D03*
X178460000Y-60820000D03*
X178640000Y-97730000D03*
X178720000Y-101600000D03*
X178730000Y-94480000D03*
X178840000Y-99760000D03*
X179550000Y-38470000D03*
X180140000Y-63520000D03*
X180350000Y-99720000D03*
X180410000Y-101590000D03*
X180450000Y-60930000D03*
X188810000Y-63540000D03*
X188840000Y-62270000D03*
X188880000Y-73670000D03*
X188950000Y-24220000D03*
X188960000Y-45200000D03*
X189160000Y-43830000D03*
X189230000Y-80220000D03*
X189240000Y-113520000D03*
X189260000Y-78230000D03*
X189932182Y-82100000D03*
X190690000Y-80270000D03*
X190780000Y-43810000D03*
X190810000Y-63520000D03*
X190820000Y-62340000D03*
X190880000Y-45080000D03*
X190990000Y-74200000D03*
X191160000Y-40210000D03*
X191320000Y-78240000D03*
X192930000Y-75510000D03*
X193300000Y-94650000D03*
X193480000Y-62360000D03*
X193940000Y-37300000D03*
X194060000Y-56400000D03*
X194960000Y-62479000D03*
X200660000Y-24370000D03*
X201490000Y-114030000D03*
X202120000Y-100690000D03*
X202850000Y-94830000D03*
X202860000Y-96810000D03*
X202950000Y-56620000D03*
X202970000Y-58680000D03*
X203040000Y-61270000D03*
X203120000Y-62640000D03*
X203290000Y-99600000D03*
X203890000Y-76590000D03*
X205100000Y-99610000D03*
X205240000Y-61710000D03*
X210760000Y-28190000D03*
X210820000Y-24280000D03*
X211790000Y-82070000D03*
D11*
%TO.C,D36*%
X50294674Y-119149031D03*
X54665326Y-125390969D03*
%TO.C,D37*%
X59944400Y-134947690D03*
%TO.C,D35*%
X64314674Y-105719031D03*
%TO.C,D37*%
X64315052Y-141189628D03*
%TO.C,D35*%
X68685326Y-111960969D03*
%TO.C,D38*%
X70850000Y-148750000D03*
X75220652Y-154991938D03*
%TO.C,D34*%
X81564674Y-131399031D03*
X85935326Y-137640969D03*
%TO.C,D8*%
X86700000Y-55510000D03*
X86700000Y-63130000D03*
%TO.C,D15*%
X86810000Y-83740000D03*
X86810000Y-91360000D03*
%TO.C,D1*%
X86890000Y-35020000D03*
X86890000Y-42640000D03*
%TO.C,D22*%
X97304674Y-119429031D03*
X101675326Y-125670969D03*
%TO.C,D16*%
X105400000Y-71390000D03*
X105400000Y-79010000D03*
%TO.C,D23*%
X105480000Y-90430000D03*
X105480000Y-98050000D03*
%TO.C,D9*%
X105500000Y-53210000D03*
X105500000Y-60830000D03*
%TO.C,D2*%
X105700000Y-35030000D03*
X105700000Y-42650000D03*
%TO.C,D10*%
X123854682Y-51667739D03*
X123854682Y-59287739D03*
%TO.C,D29*%
X124480000Y-107530000D03*
X124480000Y-115150000D03*
%TO.C,D24*%
X124590000Y-88330000D03*
X124590000Y-95950000D03*
%TO.C,D3*%
X124680000Y-32390000D03*
X124680000Y-40010000D03*
%TO.C,D17*%
X124790000Y-70630000D03*
X124790000Y-78250000D03*
%TO.C,D30*%
X142904682Y-104886489D03*
X142904682Y-112506489D03*
%TO.C,D4*%
X143320000Y-29820000D03*
X143320000Y-37440000D03*
%TO.C,D25*%
X143390000Y-87000000D03*
X143390000Y-94620000D03*
%TO.C,D18*%
X143530000Y-68050000D03*
X143530000Y-75670000D03*
%TO.C,D11*%
X143955000Y-51540000D03*
X143955000Y-59160000D03*
%TO.C,D26*%
X161954682Y-89767739D03*
X161954682Y-97387739D03*
%TO.C,D19*%
X162430000Y-70820000D03*
X162430000Y-78440000D03*
%TO.C,D5*%
X162550000Y-32350000D03*
X162550000Y-39970000D03*
%TO.C,D31*%
X162670000Y-108120000D03*
X162670000Y-115740000D03*
%TO.C,D12*%
X162810000Y-51380000D03*
X162810000Y-59000000D03*
%TO.C,D6*%
X181004682Y-34998989D03*
X181004682Y-42618989D03*
%TO.C,D32*%
X181004682Y-110350000D03*
X181004682Y-117970000D03*
%TO.C,D20*%
X181540000Y-72590000D03*
X181540000Y-80210000D03*
%TO.C,D27*%
X181580000Y-91360000D03*
X181580000Y-98980000D03*
%TO.C,D13*%
X181990000Y-53210000D03*
X181990000Y-60830000D03*
%TO.C,D33*%
X200790000Y-110530000D03*
X200790000Y-118150000D03*
%TO.C,D7*%
X205740000Y-34730000D03*
X205740000Y-42350000D03*
%TO.C,D28*%
X205970000Y-90290000D03*
X205970000Y-97910000D03*
%TO.C,D14*%
X206000000Y-51510000D03*
X206000000Y-59130000D03*
%TO.C,D21*%
X206140000Y-71140000D03*
X206140000Y-78760000D03*
D12*
%TO.C,A1*%
X41310000Y-25820000D03*
X41310000Y-28360000D03*
X41310000Y-30900000D03*
X41310000Y-33440000D03*
X41310000Y-35980000D03*
X41310000Y-38520000D03*
X41310000Y-41060000D03*
X41310000Y-43600000D03*
X41310000Y-46140000D03*
X41310000Y-48680000D03*
X41310000Y-51220000D03*
X41310000Y-53760000D03*
X41310000Y-56300000D03*
X41310000Y-58840000D03*
X41310000Y-61380000D03*
X41310000Y-63920000D03*
X61630000Y-35980000D03*
X61630000Y-38520000D03*
X61630000Y-41060000D03*
X61630000Y-43600000D03*
X61630000Y-46140000D03*
X61630000Y-48680000D03*
X61630000Y-51220000D03*
X61630000Y-53760000D03*
X61630000Y-56300000D03*
X61630000Y-58840000D03*
X61630000Y-61380000D03*
X61630000Y-63920000D03*
M02*
