%TF.GenerationSoftware,KiCad,Pcbnew,9.0.7*%
%TF.CreationDate,2026-05-10T23:40:39+05:30*%
%TF.ProjectId,splitboard right,73706c69-7462-46f6-9172-642072696768,rev?*%
%TF.SameCoordinates,Original*%
%TF.FileFunction,Soldermask,Bot*%
%TF.FilePolarity,Negative*%
%FSLAX46Y46*%
G04 Gerber Fmt 4.6, Leading zero omitted, Abs format (unit mm)*
G04 Created by KiCad (PCBNEW 9.0.7) date 2026-05-10 23:40:39*
%MOMM*%
%LPD*%
G01*
G04 APERTURE LIST*
G04 Aperture macros list*
%AMRoundRect*
0 Rectangle with rounded corners*
0 $1 Rounding radius*
0 $2 $3 $4 $5 $6 $7 $8 $9 X,Y pos of 4 corners*
0 Add a 4 corners polygon primitive as box body*
4,1,4,$2,$3,$4,$5,$6,$7,$8,$9,$2,$3,0*
0 Add four circle primitives for the rounded corners*
1,1,$1+$1,$2,$3*
1,1,$1+$1,$4,$5*
1,1,$1+$1,$6,$7*
1,1,$1+$1,$8,$9*
0 Add four rect primitives between the rounded corners*
20,1,$1+$1,$2,$3,$4,$5,0*
20,1,$1+$1,$4,$5,$6,$7,0*
20,1,$1+$1,$6,$7,$8,$9,0*
20,1,$1+$1,$8,$9,$2,$3,0*%
%AMHorizOval*
0 Thick line with rounded ends*
0 $1 width*
0 $2 $3 position (X,Y) of the first rounded end (center of the circle)*
0 $4 $5 position (X,Y) of the second rounded end (center of the circle)*
0 Add line between two ends*
20,1,$1,$2,$3,$4,$5,0*
0 Add two circle primitives to create the rounded ends*
1,1,$1,$2,$3*
1,1,$1,$4,$5*%
%AMRotRect*
0 Rectangle, with rotation*
0 The origin of the aperture is its center*
0 $1 length*
0 $2 width*
0 $3 Rotation angle, in degrees counterclockwise*
0 Add horizontal line*
21,1,$1,$2,0,0,$3*%
G04 Aperture macros list end*
%ADD10O,1.524800X2.845600*%
%ADD11C,1.750000*%
%ADD12C,3.050000*%
%ADD13C,4.000000*%
%ADD14RoundRect,0.250000X-0.266054X-1.407068X1.413207X-0.231236X0.266054X1.407068X-1.413207X0.231236X0*%
%ADD15HorizOval,1.524800X-0.378790X0.540968X0.378790X-0.540968X0*%
%ADD16RoundRect,0.250000X-1.025000X-1.000000X1.025000X-1.000000X1.025000X1.000000X-1.025000X1.000000X0*%
%ADD17RoundRect,0.250000X-1.050000X-0.550000X1.050000X-0.550000X1.050000X0.550000X-1.050000X0.550000X0*%
%ADD18O,2.600000X1.600000*%
%ADD19R,1.500000X0.820000*%
%ADD20RotRect,0.820000X1.500000X125.000000*%
G04 APERTURE END LIST*
D10*
%TO.C,D12*%
X162810000Y-59000000D03*
X162810000Y-51380000D03*
%TD*%
D11*
%TO.C,SW36*%
X38100000Y-126206250D03*
D12*
X37683439Y-123397162D03*
D13*
X42261292Y-123292482D03*
D12*
X41428170Y-117674305D03*
D11*
X46422584Y-120378714D03*
D14*
X35000716Y-125275625D03*
X44133010Y-115780356D03*
%TD*%
D10*
%TO.C,D11*%
X143955000Y-59160000D03*
X143955000Y-51540000D03*
%TD*%
%TO.C,D29*%
X124480000Y-115150000D03*
X124480000Y-107530000D03*
%TD*%
D11*
%TO.C,SW34*%
X70094794Y-138686888D03*
D12*
X69678233Y-135877800D03*
D13*
X74256086Y-135773120D03*
D12*
X73422964Y-130154943D03*
D11*
X78417378Y-132859352D03*
D14*
X66995510Y-137756263D03*
X76127804Y-128260994D03*
%TD*%
D15*
%TO.C,D37*%
X64315052Y-141189628D03*
X59944400Y-134947690D03*
%TD*%
%TO.C,D36*%
X54665326Y-125390969D03*
X50294674Y-119149031D03*
%TD*%
D10*
%TO.C,D4*%
X143320000Y-37440000D03*
X143320000Y-29820000D03*
%TD*%
%TO.C,D5*%
X162550000Y-39970000D03*
X162550000Y-32350000D03*
%TD*%
D11*
%TO.C,SW38*%
X59953263Y-157415943D03*
D12*
X59536702Y-154606855D03*
D13*
X64114555Y-154502175D03*
D12*
X63281433Y-148883998D03*
D11*
X68275847Y-151588407D03*
D14*
X56853979Y-156485318D03*
X65986273Y-146990049D03*
%TD*%
D10*
%TO.C,D6*%
X181004682Y-42618989D03*
X181004682Y-34998989D03*
%TD*%
D11*
%TO.C,SW27*%
X168124682Y-91508989D03*
D12*
X169394682Y-88968989D03*
D13*
X173204682Y-91508989D03*
D12*
X175744682Y-86428989D03*
D11*
X178284682Y-91508989D03*
D16*
X166119682Y-88968989D03*
X179046682Y-86428989D03*
%TD*%
D11*
%TO.C,SW15*%
X72874682Y-86746489D03*
D12*
X74144682Y-84206489D03*
D13*
X77954682Y-86746489D03*
D12*
X80494682Y-81666489D03*
D11*
X83034682Y-86746489D03*
D16*
X70869682Y-84206489D03*
X83796682Y-81666489D03*
%TD*%
D11*
%TO.C,SW17*%
X110974682Y-70077739D03*
D12*
X112244682Y-67537739D03*
D13*
X116054682Y-70077739D03*
D12*
X118594682Y-64997739D03*
D11*
X121134682Y-70077739D03*
D16*
X108969682Y-67537739D03*
X121896682Y-64997739D03*
%TD*%
D11*
%TO.C,SW4*%
X130024682Y-29596489D03*
D12*
X131294682Y-27056489D03*
D13*
X135104682Y-29596489D03*
D12*
X137644682Y-24516489D03*
D11*
X140184682Y-29596489D03*
D16*
X128019682Y-27056489D03*
X140946682Y-24516489D03*
%TD*%
D11*
%TO.C,SW22*%
X85699640Y-127760257D03*
D12*
X85283079Y-124951169D03*
D13*
X89860932Y-124846489D03*
D12*
X89027810Y-119228312D03*
D11*
X94022224Y-121932721D03*
D14*
X82600356Y-126829632D03*
X91732650Y-117334363D03*
%TD*%
D10*
%TO.C,D1*%
X86890000Y-42640000D03*
X86890000Y-35020000D03*
%TD*%
%TO.C,D10*%
X123854682Y-59287739D03*
X123854682Y-51667739D03*
%TD*%
D11*
%TO.C,SW10*%
X110974682Y-51027739D03*
D12*
X112244682Y-48487739D03*
D13*
X116054682Y-51027739D03*
D12*
X118594682Y-45947739D03*
D11*
X121134682Y-51027739D03*
D16*
X108969682Y-48487739D03*
X121896682Y-45947739D03*
%TD*%
D11*
%TO.C,SW32*%
X168124682Y-110558989D03*
D12*
X169394682Y-108018989D03*
D13*
X173204682Y-110558989D03*
D12*
X175744682Y-105478989D03*
D11*
X178284682Y-110558989D03*
D16*
X166119682Y-108018989D03*
X179046682Y-105478989D03*
%TD*%
D11*
%TO.C,SW20*%
X168124682Y-72458989D03*
D12*
X169394682Y-69918989D03*
D13*
X173204682Y-72458989D03*
D12*
X175744682Y-67378989D03*
D11*
X178284682Y-72458989D03*
D16*
X166119682Y-69918989D03*
X179046682Y-67378989D03*
%TD*%
D10*
%TO.C,D30*%
X142904682Y-112506489D03*
X142904682Y-104886489D03*
%TD*%
%TO.C,D15*%
X86810000Y-91360000D03*
X86810000Y-83740000D03*
%TD*%
%TO.C,D8*%
X86700000Y-63130000D03*
X86700000Y-55510000D03*
%TD*%
%TO.C,D31*%
X162670000Y-115740000D03*
X162670000Y-108120000D03*
%TD*%
D11*
%TO.C,SW35*%
X53704847Y-115279619D03*
D12*
X53288286Y-112470531D03*
D13*
X57866139Y-112365851D03*
D12*
X57033017Y-106747674D03*
D11*
X62027431Y-109452083D03*
D14*
X50605563Y-114348994D03*
X59737857Y-104853725D03*
%TD*%
D11*
%TO.C,SW6*%
X168124682Y-34358989D03*
D12*
X169394682Y-31818989D03*
D13*
X173204682Y-34358989D03*
D12*
X175744682Y-29278989D03*
D11*
X178284682Y-34358989D03*
D16*
X166119682Y-31818989D03*
X179046682Y-29278989D03*
%TD*%
D10*
%TO.C,D14*%
X206000000Y-59130000D03*
X206000000Y-51510000D03*
%TD*%
%TO.C,D3*%
X124680000Y-40010000D03*
X124680000Y-32390000D03*
%TD*%
D11*
%TO.C,SW8*%
X72874682Y-58171489D03*
D12*
X74144682Y-55631489D03*
D13*
X77954682Y-58171489D03*
D12*
X80494682Y-53091489D03*
D11*
X83034682Y-58171489D03*
D16*
X70869682Y-55631489D03*
X83796682Y-53091489D03*
%TD*%
D11*
%TO.C,SW12*%
X149074682Y-51027739D03*
D12*
X150344682Y-48487739D03*
D13*
X154154682Y-51027739D03*
D12*
X156694682Y-45947739D03*
D11*
X159234682Y-51027739D03*
D16*
X147069682Y-48487739D03*
X159996682Y-45947739D03*
%TD*%
D10*
%TO.C,D9*%
X105500000Y-60830000D03*
X105500000Y-53210000D03*
%TD*%
D15*
%TO.C,D35*%
X68685326Y-111960969D03*
X64314674Y-105719031D03*
%TD*%
D10*
%TO.C,D17*%
X124790000Y-78250000D03*
X124790000Y-70630000D03*
%TD*%
%TO.C,D2*%
X105700000Y-42650000D03*
X105700000Y-35030000D03*
%TD*%
D11*
%TO.C,SW26*%
X149074682Y-89127739D03*
D12*
X150344682Y-86587739D03*
D13*
X154154682Y-89127739D03*
D12*
X156694682Y-84047739D03*
D11*
X159234682Y-89127739D03*
D16*
X147069682Y-86587739D03*
X159996682Y-84047739D03*
%TD*%
D11*
%TO.C,SW24*%
X110974682Y-89127739D03*
D12*
X112244682Y-86587739D03*
D13*
X116054682Y-89127739D03*
D12*
X118594682Y-84047739D03*
D11*
X121134682Y-89127739D03*
D16*
X108969682Y-86587739D03*
X121896682Y-84047739D03*
%TD*%
D10*
%TO.C,D23*%
X105480000Y-98050000D03*
X105480000Y-90430000D03*
%TD*%
D11*
%TO.C,SW1*%
X72874682Y-34358989D03*
D12*
X74144682Y-31818989D03*
D13*
X77954682Y-34358989D03*
D12*
X80494682Y-29278989D03*
D11*
X83034682Y-34358989D03*
D16*
X70869682Y-31818989D03*
X83796682Y-29278989D03*
%TD*%
D10*
%TO.C,D13*%
X181990000Y-60830000D03*
X181990000Y-53210000D03*
%TD*%
D11*
%TO.C,SW28*%
X191937182Y-91508989D03*
D12*
X193207182Y-88968989D03*
D13*
X197017182Y-91508989D03*
D12*
X199557182Y-86428989D03*
D11*
X202097182Y-91508989D03*
D16*
X189932182Y-88968989D03*
X202859182Y-86428989D03*
%TD*%
D11*
%TO.C,SW37*%
X49026632Y-141811096D03*
D12*
X48610071Y-139002008D03*
D13*
X53187924Y-138897328D03*
D12*
X52354802Y-133279151D03*
D11*
X57349216Y-135983560D03*
D14*
X45927348Y-140880471D03*
X55059642Y-131385202D03*
%TD*%
D10*
%TO.C,D25*%
X143390000Y-94620000D03*
X143390000Y-87000000D03*
%TD*%
D15*
%TO.C,D22*%
X101675326Y-125670969D03*
X97304674Y-119429031D03*
%TD*%
D11*
%TO.C,SW30*%
X130024682Y-105796489D03*
D12*
X131294682Y-103256489D03*
D13*
X135104682Y-105796489D03*
D12*
X137644682Y-100716489D03*
D11*
X140184682Y-105796489D03*
D16*
X128019682Y-103256489D03*
X140946682Y-100716489D03*
%TD*%
D10*
%TO.C,D33*%
X200790000Y-118150000D03*
X200790000Y-110530000D03*
%TD*%
D11*
%TO.C,SW2*%
X91924682Y-34358989D03*
D12*
X93194682Y-31818989D03*
D13*
X97004682Y-34358989D03*
D12*
X99544682Y-29278989D03*
D11*
X102084682Y-34358989D03*
D16*
X89919682Y-31818989D03*
X102846682Y-29278989D03*
%TD*%
D11*
%TO.C,SW23*%
X91924682Y-91508989D03*
D12*
X93194682Y-88968989D03*
D13*
X97004682Y-91508989D03*
D12*
X99544682Y-86428989D03*
D11*
X102084682Y-91508989D03*
D16*
X89919682Y-88968989D03*
X102846682Y-86428989D03*
%TD*%
D11*
%TO.C,SW33*%
X187174682Y-110558989D03*
D12*
X188444682Y-108018989D03*
D13*
X192254682Y-110558989D03*
D12*
X194794682Y-105478989D03*
D11*
X197334682Y-110558989D03*
D16*
X185169682Y-108018989D03*
X198096682Y-105478989D03*
%TD*%
D11*
%TO.C,SW5*%
X149074682Y-31977739D03*
D12*
X150344682Y-29437739D03*
D13*
X154154682Y-31977739D03*
D12*
X156694682Y-26897739D03*
D11*
X159234682Y-31977739D03*
D16*
X147069682Y-29437739D03*
X159996682Y-26897739D03*
%TD*%
D17*
%TO.C,A1*%
X41610000Y-25820000D03*
D18*
X41610000Y-28360000D03*
X41610000Y-30900000D03*
X41610000Y-33440000D03*
X41610000Y-35980000D03*
X41610000Y-38520000D03*
X41610000Y-41060000D03*
X41610000Y-43600000D03*
X41610000Y-46140000D03*
X41610000Y-48680000D03*
X41610000Y-51220000D03*
X41610000Y-53760000D03*
X41610000Y-56300000D03*
X41610000Y-58840000D03*
X41610000Y-61380000D03*
X41610000Y-63920000D03*
X61330000Y-63920000D03*
X61330000Y-61380000D03*
X61330000Y-58840000D03*
X61330000Y-56300000D03*
X61330000Y-53760000D03*
X61330000Y-51220000D03*
X61330000Y-48680000D03*
X61330000Y-46140000D03*
X61330000Y-43600000D03*
X61330000Y-41060000D03*
X61330000Y-38520000D03*
X61330000Y-35980000D03*
%TD*%
D15*
%TO.C,D38*%
X75220652Y-154991938D03*
X70850000Y-148750000D03*
%TD*%
D10*
%TO.C,D7*%
X205740000Y-42350000D03*
X205740000Y-34730000D03*
%TD*%
D11*
%TO.C,SW16*%
X91924682Y-72458989D03*
D12*
X93194682Y-69918989D03*
D13*
X97004682Y-72458989D03*
D12*
X99544682Y-67378989D03*
D11*
X102084682Y-72458989D03*
D16*
X89919682Y-69918989D03*
X102846682Y-67378989D03*
%TD*%
D11*
%TO.C,SW18*%
X130024682Y-67696489D03*
D12*
X131294682Y-65156489D03*
D13*
X135104682Y-67696489D03*
D12*
X137644682Y-62616489D03*
D11*
X140184682Y-67696489D03*
D16*
X128019682Y-65156489D03*
X140946682Y-62616489D03*
%TD*%
D10*
%TO.C,D19*%
X162430000Y-78440000D03*
X162430000Y-70820000D03*
%TD*%
D11*
%TO.C,SW14*%
X191937182Y-53408989D03*
D12*
X193207182Y-50868989D03*
D13*
X197017182Y-53408989D03*
D12*
X199557182Y-48328989D03*
D11*
X202097182Y-53408989D03*
D16*
X189932182Y-50868989D03*
X202859182Y-48328989D03*
%TD*%
D11*
%TO.C,SW31*%
X149074682Y-108177739D03*
D12*
X150344682Y-105637739D03*
D13*
X154154682Y-108177739D03*
D12*
X156694682Y-103097739D03*
D11*
X159234682Y-108177739D03*
D16*
X147069682Y-105637739D03*
X159996682Y-103097739D03*
%TD*%
D11*
%TO.C,SW21*%
X191937182Y-72458989D03*
D12*
X193207182Y-69918989D03*
D13*
X197017182Y-72458989D03*
D12*
X199557182Y-67378989D03*
D11*
X202097182Y-72458989D03*
D16*
X189932182Y-69918989D03*
X202859182Y-67378989D03*
%TD*%
D11*
%TO.C,SW7*%
X191937182Y-34358989D03*
D12*
X193207182Y-31818989D03*
D13*
X197017182Y-34358989D03*
D12*
X199557182Y-29278989D03*
D11*
X202097182Y-34358989D03*
D16*
X189932182Y-31818989D03*
X202859182Y-29278989D03*
%TD*%
D11*
%TO.C,SW11*%
X130024682Y-48646489D03*
D12*
X131294682Y-46106489D03*
D13*
X135104682Y-48646489D03*
D12*
X137644682Y-43566489D03*
D11*
X140184682Y-48646489D03*
D16*
X128019682Y-46106489D03*
X140946682Y-43566489D03*
%TD*%
D10*
%TO.C,D26*%
X161954682Y-97387739D03*
X161954682Y-89767739D03*
%TD*%
D11*
%TO.C,SW19*%
X149074682Y-70077739D03*
D12*
X150344682Y-67537739D03*
D13*
X154154682Y-70077739D03*
D12*
X156694682Y-64997739D03*
D11*
X159234682Y-70077739D03*
D16*
X147069682Y-67537739D03*
X159996682Y-64997739D03*
%TD*%
D11*
%TO.C,SW13*%
X168124682Y-53408989D03*
D12*
X169394682Y-50868989D03*
D13*
X173204682Y-53408989D03*
D12*
X175744682Y-48328989D03*
D11*
X178284682Y-53408989D03*
D16*
X166119682Y-50868989D03*
X179046682Y-48328989D03*
%TD*%
D11*
%TO.C,SW29*%
X110974682Y-108177739D03*
D12*
X112244682Y-105637739D03*
D13*
X116054682Y-108177739D03*
D12*
X118594682Y-103097739D03*
D11*
X121134682Y-108177739D03*
D16*
X108969682Y-105637739D03*
X121896682Y-103097739D03*
%TD*%
D10*
%TO.C,D32*%
X181004682Y-117970000D03*
X181004682Y-110350000D03*
%TD*%
%TO.C,D24*%
X124590000Y-95950000D03*
X124590000Y-88330000D03*
%TD*%
D11*
%TO.C,SW9*%
X91924682Y-53408989D03*
D12*
X93194682Y-50868989D03*
D13*
X97004682Y-53408989D03*
D12*
X99544682Y-48328989D03*
D11*
X102084682Y-53408989D03*
D16*
X89919682Y-50868989D03*
X102846682Y-48328989D03*
%TD*%
D15*
%TO.C,D34*%
X85935326Y-137640969D03*
X81564674Y-131399031D03*
%TD*%
D10*
%TO.C,D18*%
X143530000Y-75670000D03*
X143530000Y-68050000D03*
%TD*%
%TO.C,D27*%
X181580000Y-98980000D03*
X181580000Y-91360000D03*
%TD*%
D11*
%TO.C,SW25*%
X130024682Y-86746489D03*
D12*
X131294682Y-84206489D03*
D13*
X135104682Y-86746489D03*
D12*
X137644682Y-81666489D03*
D11*
X140184682Y-86746489D03*
D16*
X128019682Y-84206489D03*
X140946682Y-81666489D03*
%TD*%
D10*
%TO.C,D16*%
X105400000Y-79010000D03*
X105400000Y-71390000D03*
%TD*%
%TO.C,D20*%
X181540000Y-80210000D03*
X181540000Y-72590000D03*
%TD*%
%TO.C,D28*%
X205970000Y-97910000D03*
X205970000Y-90290000D03*
%TD*%
%TO.C,D21*%
X206140000Y-78760000D03*
X206140000Y-71140000D03*
%TD*%
D11*
%TO.C,SW3*%
X110974682Y-31977739D03*
D12*
X112244682Y-29437739D03*
D13*
X116054682Y-31977739D03*
D12*
X118594682Y-26897739D03*
D11*
X121134682Y-31977739D03*
D16*
X108969682Y-29437739D03*
X121896682Y-26897739D03*
%TD*%
D19*
%TO.C,L20*%
X94300000Y-77140000D03*
X94300000Y-78640000D03*
X99900000Y-78640000D03*
X99900000Y-77140000D03*
%TD*%
%TO.C,L28*%
X189450000Y-115070000D03*
X189450000Y-116570000D03*
X195050000Y-116570000D03*
X195050000Y-115070000D03*
%TD*%
%TO.C,L6*%
X94370000Y-38770000D03*
X94370000Y-40270000D03*
X99970000Y-40270000D03*
X99970000Y-38770000D03*
%TD*%
%TO.C,L31*%
X132300000Y-110290000D03*
X132300000Y-111790000D03*
X137900000Y-111790000D03*
X137900000Y-110290000D03*
%TD*%
D20*
%TO.C,L33*%
X90246192Y-130051650D03*
X91106557Y-131280378D03*
X95693808Y-128068350D03*
X94833443Y-126839622D03*
%TD*%
D19*
%TO.C,L27*%
X194250000Y-95980000D03*
X194250000Y-97480000D03*
X199850000Y-97480000D03*
X199850000Y-95980000D03*
%TD*%
%TO.C,L13*%
X170270000Y-57860000D03*
X170270000Y-59360000D03*
X175870000Y-59360000D03*
X175870000Y-57860000D03*
%TD*%
%TO.C,L21*%
X75060000Y-91300000D03*
X75060000Y-92800000D03*
X80660000Y-92800000D03*
X80660000Y-91300000D03*
%TD*%
%TO.C,L17*%
X151300000Y-74580000D03*
X151300000Y-76080000D03*
X156900000Y-76080000D03*
X156900000Y-74580000D03*
%TD*%
D20*
%TO.C,L37*%
X42546192Y-128691650D03*
X43406557Y-129920378D03*
X47993808Y-126708350D03*
X47133443Y-125479622D03*
%TD*%
D19*
%TO.C,L12*%
X151340000Y-55570000D03*
X151340000Y-57070000D03*
X156940000Y-57070000D03*
X156940000Y-55570000D03*
%TD*%
%TO.C,L2*%
X170280000Y-38720000D03*
X170280000Y-40220000D03*
X175880000Y-40220000D03*
X175880000Y-38720000D03*
%TD*%
%TO.C,L15*%
X194280000Y-76770000D03*
X194280000Y-78270000D03*
X199880000Y-78270000D03*
X199880000Y-76770000D03*
%TD*%
%TO.C,L24*%
X132360000Y-91200000D03*
X132360000Y-92700000D03*
X137960000Y-92700000D03*
X137960000Y-91200000D03*
%TD*%
%TO.C,L10*%
X113270000Y-55370000D03*
X113270000Y-56870000D03*
X118870000Y-56870000D03*
X118870000Y-55370000D03*
%TD*%
%TO.C,L11*%
X132330000Y-53110000D03*
X132330000Y-54610000D03*
X137930000Y-54610000D03*
X137930000Y-53110000D03*
%TD*%
D20*
%TO.C,L36*%
X53626192Y-144161650D03*
X54486557Y-145390378D03*
X59073808Y-142178350D03*
X58213443Y-140949622D03*
%TD*%
D19*
%TO.C,L23*%
X113180000Y-93650000D03*
X113180000Y-95150000D03*
X118780000Y-95150000D03*
X118780000Y-93650000D03*
%TD*%
%TO.C,L29*%
X170404682Y-115100000D03*
X170404682Y-116600000D03*
X176004682Y-116600000D03*
X176004682Y-115100000D03*
%TD*%
%TO.C,L4*%
X132430000Y-34050000D03*
X132430000Y-35550000D03*
X138030000Y-35550000D03*
X138030000Y-34050000D03*
%TD*%
%TO.C,L1*%
X194430000Y-38670000D03*
X194430000Y-40170000D03*
X200030000Y-40170000D03*
X200030000Y-38670000D03*
%TD*%
%TO.C,L25*%
X151170000Y-93440000D03*
X151170000Y-94940000D03*
X156770000Y-94940000D03*
X156770000Y-93440000D03*
%TD*%
%TO.C,L5*%
X113330000Y-36370000D03*
X113330000Y-37870000D03*
X118930000Y-37870000D03*
X118930000Y-36370000D03*
%TD*%
%TO.C,L16*%
X170590000Y-77020000D03*
X170590000Y-78520000D03*
X176190000Y-78520000D03*
X176190000Y-77020000D03*
%TD*%
%TO.C,L9*%
X94090000Y-57880000D03*
X94090000Y-59380000D03*
X99690000Y-59380000D03*
X99690000Y-57880000D03*
%TD*%
%TO.C,L19*%
X113240000Y-74510000D03*
X113240000Y-76010000D03*
X118840000Y-76010000D03*
X118840000Y-74510000D03*
%TD*%
%TO.C,L14*%
X194180000Y-57760000D03*
X194180000Y-59260000D03*
X199780000Y-59260000D03*
X199780000Y-57760000D03*
%TD*%
D20*
%TO.C,L35*%
X64686192Y-159771650D03*
X65546557Y-161000378D03*
X70133808Y-157788350D03*
X69273443Y-156559622D03*
%TD*%
D19*
%TO.C,L30*%
X151400000Y-112740000D03*
X151400000Y-114240000D03*
X157000000Y-114240000D03*
X157000000Y-112740000D03*
%TD*%
D20*
%TO.C,L34*%
X74636192Y-141071650D03*
X75496557Y-142300378D03*
X80083808Y-139088350D03*
X79223443Y-137859622D03*
%TD*%
D19*
%TO.C,L22*%
X94190000Y-96140000D03*
X94190000Y-97640000D03*
X99790000Y-97640000D03*
X99790000Y-96140000D03*
%TD*%
%TO.C,L3*%
X151310000Y-36460000D03*
X151310000Y-37960000D03*
X156910000Y-37960000D03*
X156910000Y-36460000D03*
%TD*%
%TO.C,L8*%
X75154682Y-62560000D03*
X75154682Y-64060000D03*
X80754682Y-64060000D03*
X80754682Y-62560000D03*
%TD*%
%TO.C,L26*%
X170440000Y-96020000D03*
X170440000Y-97520000D03*
X176040000Y-97520000D03*
X176040000Y-96020000D03*
%TD*%
%TO.C,L32*%
X113070000Y-112690000D03*
X113070000Y-114190000D03*
X118670000Y-114190000D03*
X118670000Y-112690000D03*
%TD*%
D20*
%TO.C,L38*%
X58006192Y-117791650D03*
X58866557Y-119020378D03*
X63453808Y-115808350D03*
X62593443Y-114579622D03*
%TD*%
D19*
%TO.C,L18*%
X132190000Y-72210000D03*
X132190000Y-73710000D03*
X137790000Y-73710000D03*
X137790000Y-72210000D03*
%TD*%
%TO.C,L7*%
X75110000Y-38730000D03*
X75110000Y-40230000D03*
X80710000Y-40230000D03*
X80710000Y-38730000D03*
%TD*%
M02*
