%TF.GenerationSoftware,KiCad,Pcbnew,9.0.7*%
%TF.CreationDate,2026-05-10T23:39:27+05:30*%
%TF.ProjectId,splitboard left,73706c69-7462-46f6-9172-64206c656674,rev?*%
%TF.SameCoordinates,Original*%
%TF.FileFunction,Profile,NP*%
%FSLAX46Y46*%
G04 Gerber Fmt 4.6, Leading zero omitted, Abs format (unit mm)*
G04 Created by KiCad (PCBNEW 9.0.7) date 2026-05-10 23:39:27*
%MOMM*%
%LPD*%
G01*
G04 APERTURE LIST*
%TA.AperFunction,Profile*%
%ADD10C,0.050000*%
%TD*%
%TA.AperFunction,Profile*%
%ADD11C,0.000000*%
%TD*%
G04 APERTURE END LIST*
D10*
X100770000Y-21850000D02*
X123040000Y-21850000D01*
X81650000Y-26460000D02*
X100770000Y-26460000D01*
X34130000Y-132460000D02*
X113780000Y-132460000D01*
X123040000Y-21850000D02*
X214600000Y-21850000D01*
X182630000Y-180170000D02*
X217710000Y-130170000D01*
X35363000Y-30900000D02*
X34130000Y-30900000D01*
X217710000Y-130170000D02*
X214600000Y-127990000D01*
X35363000Y-30900000D02*
X81650000Y-30900000D01*
X214600000Y-21850000D02*
X214600000Y-127990000D01*
X34130000Y-30900000D02*
X34130000Y-132460000D01*
X100770000Y-26460000D02*
X100770000Y-21850000D01*
X113780000Y-132460000D02*
X182630000Y-180170000D01*
X81650000Y-30900000D02*
X81650000Y-26460000D01*
D11*
%TA.AperFunction,Profile*%
%TO.C,L50*%
G36*
X153700000Y-33560000D02*
G01*
X156500000Y-33560000D01*
X156506500Y-33560000D01*
G75*
G02*
X156900000Y-33959500I-6800J-400300D01*
G01*
X156900000Y-33960000D01*
X156900000Y-36360000D01*
G75*
G02*
X156500000Y-36760000I-400000J0D01*
G01*
X153700000Y-36760000D01*
G75*
G02*
X153300000Y-36360000I0J400000D01*
G01*
X153300000Y-33959500D01*
G75*
G02*
X153700000Y-33559500I400000J0D01*
G01*
X153700000Y-33560000D01*
G37*
%TD.AperFunction*%
%TA.AperFunction,Profile*%
%TO.C,L42*%
G36*
X78080000Y-33250000D02*
G01*
X80880000Y-33250000D01*
X80886500Y-33250000D01*
G75*
G02*
X81280000Y-33649500I-6800J-400300D01*
G01*
X81280000Y-33650000D01*
X81280000Y-36050000D01*
G75*
G02*
X80880000Y-36450000I-400000J0D01*
G01*
X78080000Y-36450000D01*
G75*
G02*
X77680000Y-36050000I0J400000D01*
G01*
X77680000Y-33649500D01*
G75*
G02*
X78080000Y-33249500I400000J0D01*
G01*
X78080000Y-33250000D01*
G37*
%TD.AperFunction*%
%TA.AperFunction,Profile*%
%TO.C,L52*%
G36*
X173940000Y-33870000D02*
G01*
X176740000Y-33870000D01*
X176746500Y-33870000D01*
G75*
G02*
X177140000Y-34269500I-6800J-400300D01*
G01*
X177140000Y-34270000D01*
X177140000Y-36670000D01*
G75*
G02*
X176740000Y-37070000I-400000J0D01*
G01*
X173940000Y-37070000D01*
G75*
G02*
X173540000Y-36670000I0J400000D01*
G01*
X173540000Y-34269500D01*
G75*
G02*
X173940000Y-33869500I400000J0D01*
G01*
X173940000Y-33870000D01*
G37*
%TD.AperFunction*%
%TA.AperFunction,Profile*%
%TO.C,L40*%
G36*
X55840000Y-33720000D02*
G01*
X58640000Y-33720000D01*
X58646500Y-33720000D01*
G75*
G02*
X59040000Y-34119500I-6800J-400300D01*
G01*
X59040000Y-34120000D01*
X59040000Y-36520000D01*
G75*
G02*
X58640000Y-36920000I-400000J0D01*
G01*
X55840000Y-36920000D01*
G75*
G02*
X55440000Y-36520000I0J400000D01*
G01*
X55440000Y-34119500D01*
G75*
G02*
X55840000Y-33719500I400000J0D01*
G01*
X55840000Y-33720000D01*
G37*
%TD.AperFunction*%
%TA.AperFunction,Profile*%
%TO.C,L39*%
G36*
X44130000Y-33750250D02*
G01*
X46930000Y-33750250D01*
X46936500Y-33750250D01*
G75*
G02*
X47330000Y-34149750I-6800J-400250D01*
G01*
X47330000Y-34150250D01*
X47330000Y-36550250D01*
G75*
G02*
X46930000Y-36950250I-400000J-50D01*
G01*
X44130000Y-36950250D01*
G75*
G02*
X43730000Y-36550250I0J399950D01*
G01*
X43730000Y-34149750D01*
G75*
G02*
X44130000Y-33749750I400000J50D01*
G01*
X44130000Y-33750250D01*
G37*
%TD.AperFunction*%
%TA.AperFunction,Profile*%
%TO.C,L43*%
G36*
X89090000Y-28940000D02*
G01*
X91890000Y-28940000D01*
X91896500Y-28940000D01*
G75*
G02*
X92290000Y-29339500I-6800J-400300D01*
G01*
X92290000Y-29340000D01*
X92290000Y-31740000D01*
G75*
G02*
X91890000Y-32140000I-400000J0D01*
G01*
X89090000Y-32140000D01*
G75*
G02*
X88690000Y-31740000I0J400000D01*
G01*
X88690000Y-29339500D01*
G75*
G02*
X89090000Y-28939500I400000J0D01*
G01*
X89090000Y-28940000D01*
G37*
%TD.AperFunction*%
%TA.AperFunction,Profile*%
%TO.C,L49*%
G36*
X143000000Y-33750250D02*
G01*
X145800000Y-33750250D01*
X145806500Y-33750250D01*
G75*
G02*
X146200000Y-34149750I-6800J-400250D01*
G01*
X146200000Y-34150250D01*
X146200000Y-36550250D01*
G75*
G02*
X145800000Y-36950250I-400000J-50D01*
G01*
X143000000Y-36950250D01*
G75*
G02*
X142600000Y-36550250I0J399950D01*
G01*
X142600000Y-34149750D01*
G75*
G02*
X143000000Y-33749750I400000J50D01*
G01*
X143000000Y-33750250D01*
G37*
%TD.AperFunction*%
%TA.AperFunction,Profile*%
%TO.C,L53*%
G36*
X163900000Y-33580000D02*
G01*
X166700000Y-33580000D01*
X166706500Y-33580000D01*
G75*
G02*
X167100000Y-33979500I-6800J-400300D01*
G01*
X167100000Y-33980000D01*
X167100000Y-36380000D01*
G75*
G02*
X166700000Y-36780000I-400000J0D01*
G01*
X163900000Y-36780000D01*
G75*
G02*
X163500000Y-36380000I0J400000D01*
G01*
X163500000Y-33979500D01*
G75*
G02*
X163900000Y-33579500I400000J0D01*
G01*
X163900000Y-33580000D01*
G37*
%TD.AperFunction*%
%TA.AperFunction,Profile*%
%TO.C,L48*%
G36*
X135380000Y-29030000D02*
G01*
X138180000Y-29030000D01*
X138186500Y-29030000D01*
G75*
G02*
X138580000Y-29429500I-6800J-400300D01*
G01*
X138580000Y-29430000D01*
X138580000Y-31830000D01*
G75*
G02*
X138180000Y-32230000I-400000J0D01*
G01*
X135380000Y-32230000D01*
G75*
G02*
X134980000Y-31830000I0J400000D01*
G01*
X134980000Y-29429500D01*
G75*
G02*
X135380000Y-29029500I400000J0D01*
G01*
X135380000Y-29030000D01*
G37*
%TD.AperFunction*%
%TA.AperFunction,Profile*%
%TO.C,L41*%
G36*
X66820000Y-33830000D02*
G01*
X69620000Y-33830000D01*
X69626500Y-33830000D01*
G75*
G02*
X70020000Y-34229500I-6800J-400300D01*
G01*
X70020000Y-34230000D01*
X70020000Y-36630000D01*
G75*
G02*
X69620000Y-37030000I-400000J0D01*
G01*
X66820000Y-37030000D01*
G75*
G02*
X66420000Y-36630000I0J400000D01*
G01*
X66420000Y-34229500D01*
G75*
G02*
X66820000Y-33829500I400000J0D01*
G01*
X66820000Y-33830000D01*
G37*
%TD.AperFunction*%
%TA.AperFunction,Profile*%
%TO.C,L46*%
G36*
X115540000Y-24100000D02*
G01*
X118340000Y-24100000D01*
X118346500Y-24100000D01*
G75*
G02*
X118740000Y-24499500I-6800J-400300D01*
G01*
X118740000Y-24500000D01*
X118740000Y-26900000D01*
G75*
G02*
X118340000Y-27300000I-400000J0D01*
G01*
X115540000Y-27300000D01*
G75*
G02*
X115140000Y-26900000I0J400000D01*
G01*
X115140000Y-24499500D01*
G75*
G02*
X115540000Y-24099500I400000J0D01*
G01*
X115540000Y-24100000D01*
G37*
%TD.AperFunction*%
%TA.AperFunction,Profile*%
%TO.C,L44*%
G36*
X99300000Y-28510000D02*
G01*
X102100000Y-28510000D01*
X102106500Y-28510000D01*
G75*
G02*
X102500000Y-28909500I-6800J-400300D01*
G01*
X102500000Y-28910000D01*
X102500000Y-31310000D01*
G75*
G02*
X102100000Y-31710000I-400000J0D01*
G01*
X99300000Y-31710000D01*
G75*
G02*
X98900000Y-31310000I0J400000D01*
G01*
X98900000Y-28909500D01*
G75*
G02*
X99300000Y-28509500I400000J0D01*
G01*
X99300000Y-28510000D01*
G37*
%TD.AperFunction*%
%TA.AperFunction,Profile*%
%TO.C,L47*%
G36*
X125290000Y-28840250D02*
G01*
X128090000Y-28840250D01*
X128096500Y-28840250D01*
G75*
G02*
X128490000Y-29239750I-6800J-400250D01*
G01*
X128490000Y-29240250D01*
X128490000Y-31640250D01*
G75*
G02*
X128090000Y-32040250I-400000J-50D01*
G01*
X125290000Y-32040250D01*
G75*
G02*
X124890000Y-31640250I0J399950D01*
G01*
X124890000Y-29239750D01*
G75*
G02*
X125290000Y-28839750I400000J50D01*
G01*
X125290000Y-28840250D01*
G37*
%TD.AperFunction*%
%TA.AperFunction,Profile*%
%TO.C,L45*%
G36*
X105090000Y-24220000D02*
G01*
X107890000Y-24220000D01*
X107896500Y-24220000D01*
G75*
G02*
X108290000Y-24619500I-6800J-400300D01*
G01*
X108290000Y-24620000D01*
X108290000Y-27020000D01*
G75*
G02*
X107890000Y-27420000I-400000J0D01*
G01*
X105090000Y-27420000D01*
G75*
G02*
X104690000Y-27020000I0J400000D01*
G01*
X104690000Y-24619500D01*
G75*
G02*
X105090000Y-24219500I400000J0D01*
G01*
X105090000Y-24220000D01*
G37*
%TD.AperFunction*%
%TA.AperFunction,Profile*%
%TO.C,L24*%
G36*
X113012500Y-94898750D02*
G01*
X113012500Y-94898750D01*
G75*
G02*
X113412500Y-95298750I0J-399950D01*
G01*
X113412500Y-97698750D01*
X113412500Y-97699250D01*
G75*
G02*
X113019000Y-98098750I-400300J750D01*
G01*
X113012500Y-98098750D01*
X110212500Y-98098750D01*
X110212500Y-98099250D01*
G75*
G02*
X109812500Y-97699250I0J399950D01*
G01*
X109812500Y-95298750D01*
G75*
G02*
X110212500Y-94898750I400000J50D01*
G01*
X113012500Y-94898750D01*
G37*
%TD.AperFunction*%
%TA.AperFunction,Profile*%
%TO.C,L3*%
G36*
X93662500Y-42398750D02*
G01*
X93662500Y-42398750D01*
G75*
G02*
X94062500Y-42798750I0J-399950D01*
G01*
X94062500Y-45198750D01*
X94062500Y-45199250D01*
G75*
G02*
X93669000Y-45598750I-400300J750D01*
G01*
X93662500Y-45598750D01*
X90862500Y-45598750D01*
X90862500Y-45599250D01*
G75*
G02*
X90462500Y-45199250I0J399950D01*
G01*
X90462500Y-42798750D01*
G75*
G02*
X90862500Y-42398750I400000J50D01*
G01*
X93662500Y-42398750D01*
G37*
%TD.AperFunction*%
%TA.AperFunction,Profile*%
%TO.C,L23*%
G36*
X131972500Y-99998750D02*
G01*
X131972500Y-99998750D01*
G75*
G02*
X132372500Y-100398750I0J-399950D01*
G01*
X132372500Y-102798750D01*
X132372500Y-102799250D01*
G75*
G02*
X131979000Y-103198750I-400300J750D01*
G01*
X131972500Y-103198750D01*
X129172500Y-103198750D01*
X129172500Y-103199250D01*
G75*
G02*
X128772500Y-102799250I0J399950D01*
G01*
X128772500Y-100398750D01*
G75*
G02*
X129172500Y-99998750I400000J50D01*
G01*
X131972500Y-99998750D01*
G37*
%TD.AperFunction*%
%TA.AperFunction,Profile*%
%TO.C,L17*%
G36*
X93687500Y-80798750D02*
G01*
X93687500Y-80798750D01*
G75*
G02*
X94087500Y-81198750I0J-399950D01*
G01*
X94087500Y-83598750D01*
X94087500Y-83599250D01*
G75*
G02*
X93694000Y-83998750I-400300J750D01*
G01*
X93687500Y-83998750D01*
X90887500Y-83998750D01*
X90887500Y-83999250D01*
G75*
G02*
X90487500Y-83599250I0J399950D01*
G01*
X90487500Y-81198750D01*
G75*
G02*
X90887500Y-80798750I400000J50D01*
G01*
X93687500Y-80798750D01*
G37*
%TD.AperFunction*%
%TA.AperFunction,Profile*%
%TO.C,L29*%
G36*
X74730000Y-124095000D02*
G01*
X74730000Y-124095000D01*
G75*
G02*
X75130000Y-124495000I0J-400000D01*
G01*
X75130000Y-126895000D01*
X75130000Y-126895500D01*
G75*
G02*
X74736500Y-127295000I-400300J800D01*
G01*
X74730000Y-127295000D01*
X71930000Y-127295000D01*
X71930000Y-127295500D01*
G75*
G02*
X71530000Y-126895500I0J400000D01*
G01*
X71530000Y-124495000D01*
G75*
G02*
X71930000Y-124095000I400000J0D01*
G01*
X74730000Y-124095000D01*
G37*
%TD.AperFunction*%
%TA.AperFunction,Profile*%
%TO.C,L27*%
G36*
X51062500Y-104548750D02*
G01*
X51062500Y-104548750D01*
G75*
G02*
X51462500Y-104948750I0J-399950D01*
G01*
X51462500Y-107348750D01*
X51462500Y-107349250D01*
G75*
G02*
X51069000Y-107748750I-400300J750D01*
G01*
X51062500Y-107748750D01*
X48262500Y-107748750D01*
X48262500Y-107749250D01*
G75*
G02*
X47862500Y-107349250I0J399950D01*
G01*
X47862500Y-104948750D01*
G75*
G02*
X48262500Y-104548750I400000J50D01*
G01*
X51062500Y-104548750D01*
G37*
%TD.AperFunction*%
%TA.AperFunction,Profile*%
%TO.C,L38*%
G36*
X189654864Y-123134215D02*
G01*
X189654864Y-123134215D01*
G75*
G02*
X190211955Y-123035985I327636J-229385D01*
G01*
X192177920Y-124412568D01*
X192178330Y-124412855D01*
G75*
G02*
X192279879Y-124964335I-230230J-327445D01*
G01*
X192276150Y-124969659D01*
X190670136Y-127263285D01*
X190670546Y-127263572D01*
G75*
G02*
X190113454Y-127361802I-327646J229472D01*
G01*
X188147080Y-125984932D01*
G75*
G02*
X188048850Y-125427841I229420J327632D01*
G01*
X189654864Y-123134215D01*
G37*
%TD.AperFunction*%
%TA.AperFunction,Profile*%
%TO.C,L33*%
G36*
X157579864Y-135509215D02*
G01*
X157579864Y-135509215D01*
G75*
G02*
X158136955Y-135410985I327636J-229385D01*
G01*
X160102920Y-136787568D01*
X160103330Y-136787855D01*
G75*
G02*
X160204879Y-137339335I-230230J-327445D01*
G01*
X160201150Y-137344659D01*
X158595136Y-139638285D01*
X158595546Y-139638572D01*
G75*
G02*
X158038454Y-139736802I-327646J229472D01*
G01*
X156072080Y-138359932D01*
G75*
G02*
X155973850Y-137802841I229420J327632D01*
G01*
X157579864Y-135509215D01*
G37*
%TD.AperFunction*%
%TA.AperFunction,Profile*%
%TO.C,L36*%
G36*
X194629864Y-149759215D02*
G01*
X194629864Y-149759215D01*
G75*
G02*
X195186955Y-149660985I327636J-229385D01*
G01*
X197152920Y-151037568D01*
X197153330Y-151037855D01*
G75*
G02*
X197254879Y-151589335I-230230J-327445D01*
G01*
X197251150Y-151594659D01*
X195645136Y-153888285D01*
X195645546Y-153888572D01*
G75*
G02*
X195088454Y-153986802I-327646J229472D01*
G01*
X193122080Y-152609932D01*
G75*
G02*
X193023850Y-152052841I229420J327632D01*
G01*
X194629864Y-149759215D01*
G37*
%TD.AperFunction*%
%TA.AperFunction,Profile*%
%TO.C,L11*%
G36*
X112987500Y-56748750D02*
G01*
X112987500Y-56748750D01*
G75*
G02*
X113387500Y-57148750I0J-399950D01*
G01*
X113387500Y-59548750D01*
X113387500Y-59549250D01*
G75*
G02*
X112994000Y-59948750I-400300J750D01*
G01*
X112987500Y-59948750D01*
X110187500Y-59948750D01*
X110187500Y-59949250D01*
G75*
G02*
X109787500Y-59549250I0J399950D01*
G01*
X109787500Y-57148750D01*
G75*
G02*
X110187500Y-56748750I400000J50D01*
G01*
X112987500Y-56748750D01*
G37*
%TD.AperFunction*%
%TA.AperFunction,Profile*%
%TO.C,L5*%
G36*
X132637500Y-42898750D02*
G01*
X132637500Y-42898750D01*
G75*
G02*
X133037500Y-43298750I0J-399950D01*
G01*
X133037500Y-45698750D01*
X133037500Y-45699250D01*
G75*
G02*
X132644000Y-46098750I-400300J750D01*
G01*
X132637500Y-46098750D01*
X129837500Y-46098750D01*
X129837500Y-46099250D01*
G75*
G02*
X129437500Y-45699250I0J399950D01*
G01*
X129437500Y-43298750D01*
G75*
G02*
X129837500Y-42898750I400000J50D01*
G01*
X132637500Y-42898750D01*
G37*
%TD.AperFunction*%
%TA.AperFunction,Profile*%
%TO.C,L32*%
G36*
X132412500Y-118673750D02*
G01*
X132412500Y-118673750D01*
G75*
G02*
X132812500Y-119073750I0J-399950D01*
G01*
X132812500Y-121473750D01*
X132812500Y-121474250D01*
G75*
G02*
X132419000Y-121873750I-400300J750D01*
G01*
X132412500Y-121873750D01*
X129612500Y-121873750D01*
X129612500Y-121874250D01*
G75*
G02*
X129212500Y-121474250I0J399950D01*
G01*
X129212500Y-119073750D01*
G75*
G02*
X129612500Y-118673750I400000J50D01*
G01*
X132412500Y-118673750D01*
G37*
%TD.AperFunction*%
%TA.AperFunction,Profile*%
%TO.C,L2*%
G36*
X74912500Y-47498750D02*
G01*
X74912500Y-47498750D01*
G75*
G02*
X75312500Y-47898750I0J-399950D01*
G01*
X75312500Y-50298750D01*
X75312500Y-50299250D01*
G75*
G02*
X74919000Y-50698750I-400300J750D01*
G01*
X74912500Y-50698750D01*
X72112500Y-50698750D01*
X72112500Y-50699250D01*
G75*
G02*
X71712500Y-50299250I0J399950D01*
G01*
X71712500Y-47898750D01*
G75*
G02*
X72112500Y-47498750I400000J50D01*
G01*
X74912500Y-47498750D01*
G37*
%TD.AperFunction*%
%TA.AperFunction,Profile*%
%TO.C,L28*%
G36*
X55762500Y-123448750D02*
G01*
X55762500Y-123448750D01*
G75*
G02*
X56162500Y-123848750I0J-399950D01*
G01*
X56162500Y-126248750D01*
X56162500Y-126249250D01*
G75*
G02*
X55769000Y-126648750I-400300J750D01*
G01*
X55762500Y-126648750D01*
X52962500Y-126648750D01*
X52962500Y-126649250D01*
G75*
G02*
X52562500Y-126249250I0J399950D01*
G01*
X52562500Y-123848750D01*
G75*
G02*
X52962500Y-123448750I400000J50D01*
G01*
X55762500Y-123448750D01*
G37*
%TD.AperFunction*%
%TA.AperFunction,Profile*%
%TO.C,L15*%
G36*
X50987500Y-85573750D02*
G01*
X50987500Y-85573750D01*
G75*
G02*
X51387500Y-85973750I0J-399950D01*
G01*
X51387500Y-88373750D01*
X51387500Y-88374250D01*
G75*
G02*
X50994000Y-88773750I-400300J750D01*
G01*
X50987500Y-88773750D01*
X48187500Y-88773750D01*
X48187500Y-88774250D01*
G75*
G02*
X47787500Y-88374250I0J399950D01*
G01*
X47787500Y-85973750D01*
G75*
G02*
X48187500Y-85573750I400000J50D01*
G01*
X50987500Y-85573750D01*
G37*
%TD.AperFunction*%
%TA.AperFunction,Profile*%
%TO.C,L4*%
G36*
X112737500Y-37948750D02*
G01*
X112737500Y-37948750D01*
G75*
G02*
X113137500Y-38348750I0J-399950D01*
G01*
X113137500Y-40748750D01*
X113137500Y-40749250D01*
G75*
G02*
X112744000Y-41148750I-400300J750D01*
G01*
X112737500Y-41148750D01*
X109937500Y-41148750D01*
X109937500Y-41149250D01*
G75*
G02*
X109537500Y-40749250I0J399950D01*
G01*
X109537500Y-38348750D01*
G75*
G02*
X109937500Y-37948750I400000J50D01*
G01*
X112737500Y-37948750D01*
G37*
%TD.AperFunction*%
%TA.AperFunction,Profile*%
%TO.C,L12*%
G36*
X93687500Y-61823750D02*
G01*
X93687500Y-61823750D01*
G75*
G02*
X94087500Y-62223750I0J-399950D01*
G01*
X94087500Y-64623750D01*
X94087500Y-64624250D01*
G75*
G02*
X93694000Y-65023750I-400300J750D01*
G01*
X93687500Y-65023750D01*
X90887500Y-65023750D01*
X90887500Y-65024250D01*
G75*
G02*
X90487500Y-64624250I0J399950D01*
G01*
X90487500Y-62223750D01*
G75*
G02*
X90887500Y-61823750I400000J50D01*
G01*
X93687500Y-61823750D01*
G37*
%TD.AperFunction*%
%TA.AperFunction,Profile*%
%TO.C,L16*%
G36*
X74812500Y-85623750D02*
G01*
X74812500Y-85623750D01*
G75*
G02*
X75212500Y-86023750I0J-399950D01*
G01*
X75212500Y-88423750D01*
X75212500Y-88424250D01*
G75*
G02*
X74819000Y-88823750I-400300J750D01*
G01*
X74812500Y-88823750D01*
X72012500Y-88823750D01*
X72012500Y-88824250D01*
G75*
G02*
X71612500Y-88424250I0J399950D01*
G01*
X71612500Y-86023750D01*
G75*
G02*
X72012500Y-85623750I400000J50D01*
G01*
X74812500Y-85623750D01*
G37*
%TD.AperFunction*%
%TA.AperFunction,Profile*%
%TO.C,L7*%
G36*
X169812500Y-47273750D02*
G01*
X169812500Y-47273750D01*
G75*
G02*
X170212500Y-47673750I0J-399950D01*
G01*
X170212500Y-50073750D01*
X170212500Y-50074250D01*
G75*
G02*
X169819000Y-50473750I-400300J750D01*
G01*
X169812500Y-50473750D01*
X167012500Y-50473750D01*
X167012500Y-50474250D01*
G75*
G02*
X166612500Y-50074250I0J399950D01*
G01*
X166612500Y-47673750D01*
G75*
G02*
X167012500Y-47273750I400000J50D01*
G01*
X169812500Y-47273750D01*
G37*
%TD.AperFunction*%
%TA.AperFunction,Profile*%
%TO.C,L8*%
G36*
X169987500Y-71248750D02*
G01*
X169987500Y-71248750D01*
G75*
G02*
X170387500Y-71648750I0J-399950D01*
G01*
X170387500Y-74048750D01*
X170387500Y-74049250D01*
G75*
G02*
X169994000Y-74448750I-400300J750D01*
G01*
X169987500Y-74448750D01*
X167187500Y-74448750D01*
X167187500Y-74449250D01*
G75*
G02*
X166787500Y-74049250I0J399950D01*
G01*
X166787500Y-71648750D01*
G75*
G02*
X167187500Y-71248750I400000J50D01*
G01*
X169987500Y-71248750D01*
G37*
%TD.AperFunction*%
%TA.AperFunction,Profile*%
%TO.C,L19*%
G36*
X131987500Y-80873750D02*
G01*
X131987500Y-80873750D01*
G75*
G02*
X132387500Y-81273750I0J-399950D01*
G01*
X132387500Y-83673750D01*
X132387500Y-83674250D01*
G75*
G02*
X131994000Y-84073750I-400300J750D01*
G01*
X131987500Y-84073750D01*
X129187500Y-84073750D01*
X129187500Y-84074250D01*
G75*
G02*
X128787500Y-83674250I0J399950D01*
G01*
X128787500Y-81273750D01*
G75*
G02*
X129187500Y-80873750I400000J50D01*
G01*
X131987500Y-80873750D01*
G37*
%TD.AperFunction*%
%TA.AperFunction,Profile*%
%TO.C,L18*%
G36*
X112887500Y-76023750D02*
G01*
X112887500Y-76023750D01*
G75*
G02*
X113287500Y-76423750I0J-399950D01*
G01*
X113287500Y-78823750D01*
X113287500Y-78824250D01*
G75*
G02*
X112894000Y-79223750I-400300J750D01*
G01*
X112887500Y-79223750D01*
X110087500Y-79223750D01*
X110087500Y-79224250D01*
G75*
G02*
X109687500Y-78824250I0J399950D01*
G01*
X109687500Y-76423750D01*
G75*
G02*
X110087500Y-76023750I400000J50D01*
G01*
X112887500Y-76023750D01*
G37*
%TD.AperFunction*%
%TA.AperFunction,Profile*%
%TO.C,L14*%
G36*
X51062500Y-66473750D02*
G01*
X51062500Y-66473750D01*
G75*
G02*
X51462500Y-66873750I0J-399950D01*
G01*
X51462500Y-69273750D01*
X51462500Y-69274250D01*
G75*
G02*
X51069000Y-69673750I-400300J750D01*
G01*
X51062500Y-69673750D01*
X48262500Y-69673750D01*
X48262500Y-69674250D01*
G75*
G02*
X47862500Y-69274250I0J399950D01*
G01*
X47862500Y-66873750D01*
G75*
G02*
X48262500Y-66473750I400000J50D01*
G01*
X51062500Y-66473750D01*
G37*
%TD.AperFunction*%
%TA.AperFunction,Profile*%
%TO.C,L9*%
G36*
X151037500Y-66398750D02*
G01*
X151037500Y-66398750D01*
G75*
G02*
X151437500Y-66798750I0J-399950D01*
G01*
X151437500Y-69198750D01*
X151437500Y-69199250D01*
G75*
G02*
X151044000Y-69598750I-400300J750D01*
G01*
X151037500Y-69598750D01*
X148237500Y-69598750D01*
X148237500Y-69599250D01*
G75*
G02*
X147837500Y-69199250I0J399950D01*
G01*
X147837500Y-66798750D01*
G75*
G02*
X148237500Y-66398750I400000J50D01*
G01*
X151037500Y-66398750D01*
G37*
%TD.AperFunction*%
%TA.AperFunction,Profile*%
%TO.C,L20*%
G36*
X151312500Y-85673750D02*
G01*
X151312500Y-85673750D01*
G75*
G02*
X151712500Y-86073750I0J-399950D01*
G01*
X151712500Y-88473750D01*
X151712500Y-88474250D01*
G75*
G02*
X151319000Y-88873750I-400300J750D01*
G01*
X151312500Y-88873750D01*
X148512500Y-88873750D01*
X148512500Y-88874250D01*
G75*
G02*
X148112500Y-88474250I0J399950D01*
G01*
X148112500Y-86073750D01*
G75*
G02*
X148512500Y-85673750I400000J50D01*
G01*
X151312500Y-85673750D01*
G37*
%TD.AperFunction*%
%TA.AperFunction,Profile*%
%TO.C,L25*%
G36*
X93887500Y-99898750D02*
G01*
X93887500Y-99898750D01*
G75*
G02*
X94287500Y-100298750I0J-399950D01*
G01*
X94287500Y-102698750D01*
X94287500Y-102699250D01*
G75*
G02*
X93894000Y-103098750I-400300J750D01*
G01*
X93887500Y-103098750D01*
X91087500Y-103098750D01*
X91087500Y-103099250D01*
G75*
G02*
X90687500Y-102699250I0J399950D01*
G01*
X90687500Y-100298750D01*
G75*
G02*
X91087500Y-99898750I400000J50D01*
G01*
X93887500Y-99898750D01*
G37*
%TD.AperFunction*%
%TA.AperFunction,Profile*%
%TO.C,L21*%
G36*
X165162500Y-94898750D02*
G01*
X165162500Y-94898750D01*
G75*
G02*
X165562500Y-95298750I0J-399950D01*
G01*
X165562500Y-98098750D01*
G75*
G02*
X165162500Y-98498750I-400000J-50D01*
G01*
X162762500Y-98498750D01*
X162762000Y-98498750D01*
G75*
G02*
X162362500Y-98105250I800J400350D01*
G01*
X162362500Y-98098750D01*
X162362500Y-95298750D01*
X162362000Y-95298750D01*
G75*
G02*
X162762000Y-94898750I400000J50D01*
G01*
X165162500Y-94898750D01*
G37*
%TD.AperFunction*%
%TA.AperFunction,Profile*%
%TO.C,L22*%
G36*
X151037500Y-104798750D02*
G01*
X151037500Y-104798750D01*
G75*
G02*
X151437500Y-105198750I0J-399950D01*
G01*
X151437500Y-107598750D01*
X151437500Y-107599250D01*
G75*
G02*
X151044000Y-107998750I-400300J750D01*
G01*
X151037500Y-107998750D01*
X148237500Y-107998750D01*
X148237500Y-107999250D01*
G75*
G02*
X147837500Y-107599250I0J399950D01*
G01*
X147837500Y-105198750D01*
G75*
G02*
X148237500Y-104798750I400000J50D01*
G01*
X151037500Y-104798750D01*
G37*
%TD.AperFunction*%
%TA.AperFunction,Profile*%
%TO.C,L26*%
G36*
X74787500Y-104348750D02*
G01*
X74787500Y-104348750D01*
G75*
G02*
X75187500Y-104748750I0J-399950D01*
G01*
X75187500Y-107148750D01*
X75187500Y-107149250D01*
G75*
G02*
X74794000Y-107548750I-400300J750D01*
G01*
X74787500Y-107548750D01*
X71987500Y-107548750D01*
X71987500Y-107549250D01*
G75*
G02*
X71587500Y-107149250I0J399950D01*
G01*
X71587500Y-104748750D01*
G75*
G02*
X71987500Y-104348750I400000J50D01*
G01*
X74787500Y-104348750D01*
G37*
%TD.AperFunction*%
%TA.AperFunction,Profile*%
%TO.C,L37*%
G36*
X205229864Y-134034215D02*
G01*
X205229864Y-134034215D01*
G75*
G02*
X205786955Y-133935985I327636J-229385D01*
G01*
X207752920Y-135312568D01*
X207753330Y-135312855D01*
G75*
G02*
X207854879Y-135864335I-230230J-327445D01*
G01*
X207851150Y-135869659D01*
X206245136Y-138163285D01*
X206245546Y-138163572D01*
G75*
G02*
X205688454Y-138261802I-327646J229472D01*
G01*
X203722080Y-136884932D01*
G75*
G02*
X203623850Y-136327841I229420J327632D01*
G01*
X205229864Y-134034215D01*
G37*
%TD.AperFunction*%
%TA.AperFunction,Profile*%
%TO.C,L31*%
G36*
X113162500Y-114048750D02*
G01*
X113162500Y-114048750D01*
G75*
G02*
X113562500Y-114448750I0J-399950D01*
G01*
X113562500Y-116848750D01*
X113562500Y-116849250D01*
G75*
G02*
X113169000Y-117248750I-400300J750D01*
G01*
X113162500Y-117248750D01*
X110362500Y-117248750D01*
X110362500Y-117249250D01*
G75*
G02*
X109962500Y-116849250I0J399950D01*
G01*
X109962500Y-114448750D01*
G75*
G02*
X110362500Y-114048750I400000J50D01*
G01*
X113162500Y-114048750D01*
G37*
%TD.AperFunction*%
%TA.AperFunction,Profile*%
%TO.C,L6*%
G36*
X151237500Y-47598750D02*
G01*
X151237500Y-47598750D01*
G75*
G02*
X151637500Y-47998750I0J-399950D01*
G01*
X151637500Y-50398750D01*
X151637500Y-50399250D01*
G75*
G02*
X151244000Y-50798750I-400300J750D01*
G01*
X151237500Y-50798750D01*
X148437500Y-50798750D01*
X148437500Y-50799250D01*
G75*
G02*
X148037500Y-50399250I0J399950D01*
G01*
X148037500Y-47998750D01*
G75*
G02*
X148437500Y-47598750I400000J50D01*
G01*
X151237500Y-47598750D01*
G37*
%TD.AperFunction*%
%TA.AperFunction,Profile*%
%TO.C,L1*%
G36*
X51037500Y-47498750D02*
G01*
X51037500Y-47498750D01*
G75*
G02*
X51437500Y-47898750I0J-399950D01*
G01*
X51437500Y-50298750D01*
X51437500Y-50299250D01*
G75*
G02*
X51044000Y-50698750I-400300J750D01*
G01*
X51037500Y-50698750D01*
X48237500Y-50698750D01*
X48237500Y-50699250D01*
G75*
G02*
X47837500Y-50299250I0J399950D01*
G01*
X47837500Y-47898750D01*
G75*
G02*
X48237500Y-47498750I400000J50D01*
G01*
X51037500Y-47498750D01*
G37*
%TD.AperFunction*%
%TA.AperFunction,Profile*%
%TO.C,L35*%
G36*
X183529864Y-164984215D02*
G01*
X183529864Y-164984215D01*
G75*
G02*
X184086955Y-164885985I327636J-229385D01*
G01*
X186052920Y-166262568D01*
X186053330Y-166262855D01*
G75*
G02*
X186154879Y-166814335I-230230J-327445D01*
G01*
X186151150Y-166819659D01*
X184545136Y-169113285D01*
X184545546Y-169113572D01*
G75*
G02*
X183988454Y-169211802I-327646J229472D01*
G01*
X182022080Y-167834932D01*
G75*
G02*
X181923850Y-167277841I229420J327632D01*
G01*
X183529864Y-164984215D01*
G37*
%TD.AperFunction*%
%TA.AperFunction,Profile*%
%TO.C,L30*%
G36*
X93787500Y-118698750D02*
G01*
X93787500Y-118698750D01*
G75*
G02*
X94187500Y-119098750I0J-399950D01*
G01*
X94187500Y-121498750D01*
X94187500Y-121499250D01*
G75*
G02*
X93794000Y-121898750I-400300J750D01*
G01*
X93787500Y-121898750D01*
X90987500Y-121898750D01*
X90987500Y-121899250D01*
G75*
G02*
X90587500Y-121499250I0J399950D01*
G01*
X90587500Y-119098750D01*
G75*
G02*
X90987500Y-118698750I400000J50D01*
G01*
X93787500Y-118698750D01*
G37*
%TD.AperFunction*%
%TA.AperFunction,Profile*%
%TO.C,L10*%
G36*
X131862500Y-61898750D02*
G01*
X131862500Y-61898750D01*
G75*
G02*
X132262500Y-62298750I0J-399950D01*
G01*
X132262500Y-64698750D01*
X132262500Y-64699250D01*
G75*
G02*
X131869000Y-65098750I-400300J750D01*
G01*
X131862500Y-65098750D01*
X129062500Y-65098750D01*
X129062500Y-65099250D01*
G75*
G02*
X128662500Y-64699250I0J399950D01*
G01*
X128662500Y-62298750D01*
G75*
G02*
X129062500Y-61898750I400000J50D01*
G01*
X131862500Y-61898750D01*
G37*
%TD.AperFunction*%
%TA.AperFunction,Profile*%
%TO.C,L34*%
G36*
X173204864Y-146509215D02*
G01*
X173204864Y-146509215D01*
G75*
G02*
X173761955Y-146410985I327636J-229385D01*
G01*
X175727920Y-147787568D01*
X175728330Y-147787855D01*
G75*
G02*
X175829879Y-148339335I-230230J-327445D01*
G01*
X175826150Y-148344659D01*
X174220136Y-150638285D01*
X174220546Y-150638572D01*
G75*
G02*
X173663454Y-150736802I-327646J229472D01*
G01*
X171697080Y-149359932D01*
G75*
G02*
X171598850Y-148802841I229420J327632D01*
G01*
X173204864Y-146509215D01*
G37*
%TD.AperFunction*%
%TA.AperFunction,Profile*%
%TO.C,L13*%
G36*
X74712500Y-66873750D02*
G01*
X74712500Y-66873750D01*
G75*
G02*
X75112500Y-67273750I0J-399950D01*
G01*
X75112500Y-69673750D01*
X75112500Y-69674250D01*
G75*
G02*
X74719000Y-70073750I-400300J750D01*
G01*
X74712500Y-70073750D01*
X71912500Y-70073750D01*
X71912500Y-70074250D01*
G75*
G02*
X71512500Y-69674250I0J399950D01*
G01*
X71512500Y-67273750D01*
G75*
G02*
X71912500Y-66873750I400000J50D01*
G01*
X74712500Y-66873750D01*
G37*
%TD.AperFunction*%
%TD*%
M02*
