%TF.GenerationSoftware,KiCad,Pcbnew,9.0.7*%
%TF.CreationDate,2026-05-10T23:39:30+05:30*%
%TF.ProjectId,splitboard left,73706c69-7462-46f6-9172-64206c656674,rev?*%
%TF.SameCoordinates,Original*%
%TF.FileFunction,Plated,1,2,PTH,Drill*%
%TF.FilePolarity,Positive*%
%FSLAX46Y46*%
G04 Gerber Fmt 4.6, Leading zero omitted, Abs format (unit mm)*
G04 Created by KiCad (PCBNEW 9.0.7) date 2026-05-10 23:39:30*
%MOMM*%
%LPD*%
G01*
G04 APERTURE LIST*
%TA.AperFunction,ViaDrill*%
%ADD10C,0.300000*%
%TD*%
%TA.AperFunction,ComponentDrill*%
%ADD11C,0.812800*%
%TD*%
%TA.AperFunction,ComponentDrill*%
%ADD12C,1.000000*%
%TD*%
G04 APERTURE END LIST*
D10*
X37400000Y-48240000D03*
X37660000Y-36160000D03*
X39630000Y-109090000D03*
X40570000Y-36180000D03*
X43620000Y-48220000D03*
X44630000Y-118245000D03*
X45530000Y-114370000D03*
X45870000Y-104340000D03*
X46070000Y-85360000D03*
X46100000Y-47420000D03*
X46260000Y-66080000D03*
X48060000Y-128740000D03*
X48080000Y-131270000D03*
X48380000Y-53390000D03*
X48560000Y-38370000D03*
X48580000Y-109190000D03*
X50190000Y-34650000D03*
X50270000Y-123150000D03*
X50610000Y-54350000D03*
X50730000Y-53000000D03*
X55740000Y-49820000D03*
X55800000Y-46360000D03*
X56620000Y-87670000D03*
X56620000Y-91130000D03*
X58120000Y-68510000D03*
X58160000Y-65670000D03*
X58840000Y-130720000D03*
X59320000Y-122440000D03*
X59630000Y-125330000D03*
X59755000Y-130645000D03*
X60330000Y-127695000D03*
X61430000Y-34600000D03*
X62505000Y-126045000D03*
X65080000Y-53995000D03*
X65180000Y-85445000D03*
X65270000Y-112380000D03*
X65330000Y-67995000D03*
X65530000Y-104695000D03*
X65950000Y-130650000D03*
X66280000Y-122030000D03*
X66380000Y-54710000D03*
X66387500Y-60798750D03*
X66400000Y-125230000D03*
X66450000Y-67490000D03*
X67280000Y-106020000D03*
X67305000Y-68195000D03*
X67380000Y-53970000D03*
X68170000Y-112380000D03*
X69250000Y-124430000D03*
X69370000Y-85820000D03*
X69820000Y-66770000D03*
X69910000Y-47320000D03*
X69930000Y-104210000D03*
X70630000Y-127895000D03*
X70655000Y-52845000D03*
X70730000Y-54795000D03*
X71080000Y-91570000D03*
X72520000Y-34670000D03*
X78460000Y-46810000D03*
X78490000Y-49670000D03*
X78570000Y-66390000D03*
X78620000Y-68890000D03*
X79755000Y-86170000D03*
X84060000Y-34080000D03*
X84305000Y-65695000D03*
X84330000Y-52120000D03*
X84555000Y-103445000D03*
X85387500Y-56023750D03*
X85410000Y-64510000D03*
X85610000Y-31170000D03*
X86110000Y-34270000D03*
X86190000Y-129330000D03*
X86305000Y-65120000D03*
X86555000Y-102720000D03*
X86705000Y-50995000D03*
X88340000Y-80660000D03*
X88640000Y-61370000D03*
X88690000Y-118710000D03*
X88920000Y-42410000D03*
X89070000Y-99780000D03*
X89530000Y-89170000D03*
X89555000Y-122145000D03*
X90390000Y-127080000D03*
X94990000Y-29720000D03*
X97740000Y-41740000D03*
X97790000Y-44370000D03*
X98555000Y-119745000D03*
X99380000Y-87895000D03*
X103355000Y-48345000D03*
X103555000Y-98120000D03*
X103680000Y-60445000D03*
X104330000Y-70300000D03*
X104390000Y-64600000D03*
X104430000Y-62910000D03*
X104446250Y-51298750D03*
X105040000Y-29340000D03*
X105305000Y-60245000D03*
X105330000Y-96720000D03*
X106505000Y-85495000D03*
X107130000Y-78370000D03*
X107550000Y-94610000D03*
X107640000Y-37990000D03*
X107740000Y-56310000D03*
X107740000Y-75990000D03*
X107810000Y-113790000D03*
X108980000Y-118520000D03*
X109970000Y-29040000D03*
X110600000Y-25030000D03*
X112250000Y-26460000D03*
X116390000Y-56020000D03*
X116420000Y-58890000D03*
X116530000Y-78070000D03*
X116560000Y-75480000D03*
X116700000Y-37500000D03*
X116700000Y-40160000D03*
X116705000Y-46070000D03*
X117370000Y-94310000D03*
X117370000Y-97120000D03*
X117405000Y-42545000D03*
X118220000Y-51970000D03*
X118530000Y-115145000D03*
X118780000Y-42420000D03*
X120280000Y-28590000D03*
X121070000Y-24930000D03*
X121255000Y-125120000D03*
X121940000Y-49830000D03*
X122505000Y-63620000D03*
X122580000Y-42495000D03*
X122730000Y-101995000D03*
X123340000Y-68510000D03*
X123380000Y-26750000D03*
X123390000Y-56200000D03*
X123400000Y-62840000D03*
X123496250Y-75138750D03*
X124255000Y-63670000D03*
X124355000Y-102295000D03*
X124500000Y-51900000D03*
X125150000Y-49820000D03*
X125930000Y-52800000D03*
X126440000Y-99620000D03*
X126520000Y-61770000D03*
X126680000Y-80890000D03*
X126970000Y-126030000D03*
X127110000Y-118560000D03*
X127220000Y-42800000D03*
X127955000Y-84545000D03*
X128355000Y-49645000D03*
X129880000Y-28530000D03*
X130160000Y-125850000D03*
X136680000Y-49545000D03*
X137255000Y-119645000D03*
X137305000Y-43995000D03*
X137530000Y-81720000D03*
X138150000Y-56170000D03*
X138350000Y-36800000D03*
X139680000Y-28710000D03*
X140010000Y-55960000D03*
X140050000Y-57020000D03*
X141080000Y-126595000D03*
X141130000Y-37460000D03*
X141430000Y-105920000D03*
X141480000Y-128320000D03*
X141600000Y-125330000D03*
X141680000Y-67420000D03*
X141705000Y-51395000D03*
X141870000Y-131040000D03*
X142500000Y-60600000D03*
X142546250Y-41755000D03*
X143330000Y-126245000D03*
X143370000Y-125310000D03*
X143555000Y-107170000D03*
X143580000Y-68095000D03*
X144155000Y-51345000D03*
X144930000Y-126420000D03*
X145420000Y-57620000D03*
X145840000Y-65960000D03*
X146050000Y-127630000D03*
X146220000Y-104570000D03*
X146280000Y-55030000D03*
X146290000Y-85560000D03*
X146320000Y-53340000D03*
X146340000Y-47360000D03*
X147230000Y-33550000D03*
X147230000Y-89370000D03*
X152580000Y-103370000D03*
X154640000Y-140290000D03*
X154890000Y-47140000D03*
X154900000Y-49960000D03*
X155120000Y-65470000D03*
X155130000Y-89070000D03*
X155180000Y-68550000D03*
X155230000Y-91670000D03*
X155439500Y-58283750D03*
X155855000Y-94145000D03*
X156560000Y-61220000D03*
X156680000Y-86670000D03*
X156910000Y-114300000D03*
X157060000Y-118410000D03*
X157310000Y-153750000D03*
X157555000Y-94170000D03*
X158000000Y-33558500D03*
X160060000Y-105400000D03*
X160280000Y-154300000D03*
X160470000Y-58190000D03*
X160500000Y-55230000D03*
X160510000Y-53320000D03*
X160600000Y-39040000D03*
X160655000Y-51795000D03*
X160810000Y-36070000D03*
X160870000Y-85360000D03*
X160890000Y-113790000D03*
X160912500Y-72445000D03*
X161230000Y-118070000D03*
X162180000Y-142070000D03*
X162230000Y-72695000D03*
X162605000Y-51870000D03*
X162780000Y-115020000D03*
X162905000Y-92445000D03*
X163090000Y-83180000D03*
X163090000Y-118470000D03*
X163320000Y-105510000D03*
X163400000Y-55230000D03*
X163480000Y-58120000D03*
X163560000Y-53240000D03*
X163700000Y-113750000D03*
X164430000Y-142770000D03*
X164580000Y-103520000D03*
X164590000Y-47270000D03*
X164620000Y-117030000D03*
X164780000Y-71240000D03*
X165280000Y-154310000D03*
X165300000Y-92270000D03*
X168120000Y-33800000D03*
X168550000Y-108818750D03*
X170100000Y-150960000D03*
X173960000Y-46730000D03*
X173980000Y-49480000D03*
X174005000Y-152420000D03*
X175505000Y-155200000D03*
X178850000Y-34710000D03*
X178980000Y-143840000D03*
X179380000Y-131295000D03*
X180140000Y-56950000D03*
X180570000Y-168760000D03*
X182410000Y-56450000D03*
X182630000Y-131345000D03*
X182660000Y-143620000D03*
X183230000Y-135770000D03*
X184950000Y-137350000D03*
X185610000Y-72170000D03*
X185640000Y-74330000D03*
X186850000Y-127300000D03*
X191440000Y-153830000D03*
X195920000Y-72010000D03*
X196050000Y-84660000D03*
X196070601Y-137497974D03*
X196270000Y-62480000D03*
X196280000Y-60760000D03*
X196530000Y-120390000D03*
X196560000Y-122070000D03*
X196600000Y-146430000D03*
X196790000Y-83580000D03*
X196820000Y-71950000D03*
X197250000Y-62410000D03*
X197350000Y-60790000D03*
X197460000Y-120410000D03*
X197550000Y-122350000D03*
X197710000Y-45390000D03*
X197740000Y-47030000D03*
X197860000Y-71980000D03*
X197870000Y-81190000D03*
X198670000Y-148300000D03*
X198850000Y-80380000D03*
X198950000Y-72050000D03*
X199660000Y-71280000D03*
X199740000Y-78980000D03*
X200180000Y-147820000D03*
X200305000Y-146170000D03*
X200630000Y-71360000D03*
X200660000Y-75600000D03*
X201404577Y-125451911D03*
X201660000Y-71460000D03*
X201710000Y-75770000D03*
X202160000Y-138060000D03*
X207140000Y-131130000D03*
X208480000Y-129945000D03*
X209530000Y-132470000D03*
X210455000Y-131070000D03*
D11*
%TO.C,D22*%
X59832500Y-97828750D03*
X59832500Y-105448750D03*
%TO.C,D1*%
X61187500Y-41963750D03*
X61187500Y-49583750D03*
%TO.C,D15*%
X61202500Y-80578750D03*
X61202500Y-88198750D03*
%TO.C,D8*%
X61212500Y-62138750D03*
X61212500Y-69758750D03*
%TO.C,D29*%
X63222500Y-121053750D03*
X63222500Y-128673750D03*
%TO.C,D9*%
X82262500Y-63613750D03*
X82262500Y-71233750D03*
%TO.C,D16*%
X82782500Y-80188750D03*
X82782500Y-87808750D03*
%TO.C,D30*%
X82956250Y-119288750D03*
X82956250Y-126908750D03*
%TO.C,D2*%
X83187500Y-41613750D03*
X83187500Y-49233750D03*
%TO.C,D23*%
X83382500Y-99018750D03*
X83382500Y-106638750D03*
%TO.C,D31*%
X100792500Y-115778750D03*
X100792500Y-123398750D03*
%TO.C,D17*%
X101472500Y-76988750D03*
X101472500Y-84608750D03*
%TO.C,D24*%
X101572500Y-95938750D03*
X101572500Y-103558750D03*
%TO.C,D10*%
X102042500Y-56028750D03*
X102042500Y-63648750D03*
%TO.C,D3*%
X102262500Y-37688750D03*
X102262500Y-45308750D03*
%TO.C,D11*%
X119331250Y-56028750D03*
X119331250Y-63648750D03*
%TO.C,D25*%
X119852500Y-92758750D03*
X119852500Y-100378750D03*
%TO.C,D32*%
X119982500Y-111703750D03*
X119982500Y-119323750D03*
%TO.C,D18*%
X120052500Y-72788750D03*
X120052500Y-80408750D03*
%TO.C,D4*%
X120162500Y-36963750D03*
X120162500Y-44583750D03*
%TO.C,D19*%
X138532500Y-78148750D03*
X138532500Y-85768750D03*
%TO.C,D5*%
X138887500Y-41103750D03*
X138887500Y-48723750D03*
%TO.C,D12*%
X139042500Y-59878750D03*
X139042500Y-67498750D03*
%TO.C,D26*%
X139132500Y-97008750D03*
X139132500Y-104628750D03*
%TO.C,D33*%
X140082500Y-115058750D03*
X140082500Y-122678750D03*
%TO.C,D34*%
X156672500Y-123438750D03*
%TO.C,D6*%
X157431250Y-46485000D03*
X157431250Y-54105000D03*
%TO.C,D35*%
X157872500Y-156828750D03*
%TO.C,D13*%
X157922500Y-64358750D03*
X157922500Y-71978750D03*
%TO.C,D20*%
X158312500Y-83018750D03*
X158312500Y-90638750D03*
%TO.C,D27*%
X158892500Y-101198750D03*
X158892500Y-108818750D03*
%TO.C,D34*%
X164292500Y-123438750D03*
%TO.C,D35*%
X165492500Y-156828750D03*
%TO.C,D21*%
X166062500Y-84448750D03*
%TO.C,D28*%
X168492500Y-116188750D03*
%TO.C,D21*%
X173682500Y-84448750D03*
%TO.C,D28*%
X176112500Y-116188750D03*
%TO.C,D7*%
X177587500Y-47163750D03*
X177587500Y-54783750D03*
%TO.C,D14*%
X178542500Y-65598750D03*
X178542500Y-73218750D03*
%TO.C,D38*%
X187542500Y-159338750D03*
X195162500Y-159338750D03*
%TO.C,D37*%
X198846052Y-142982011D03*
%TO.C,D36*%
X200062500Y-119728750D03*
%TO.C,D37*%
X206466052Y-142982011D03*
%TO.C,D36*%
X207682500Y-119728750D03*
D12*
%TO.C,A1*%
X190430000Y-28520000D03*
X190430000Y-31060000D03*
X190430000Y-33600000D03*
X190430000Y-36140000D03*
X190430000Y-38680000D03*
X190430000Y-41220000D03*
X190430000Y-43760000D03*
X190430000Y-46300000D03*
X190430000Y-48840000D03*
X190430000Y-51380000D03*
X190430000Y-53920000D03*
X190430000Y-56460000D03*
X190430000Y-59000000D03*
X190430000Y-61540000D03*
X190430000Y-64080000D03*
X190430000Y-66620000D03*
X210750000Y-38680000D03*
X210750000Y-41220000D03*
X210750000Y-43760000D03*
X210750000Y-46300000D03*
X210750000Y-48840000D03*
X210750000Y-51380000D03*
X210750000Y-53920000D03*
X210750000Y-56460000D03*
X210750000Y-59000000D03*
X210750000Y-61540000D03*
X210750000Y-64080000D03*
X210750000Y-66620000D03*
M02*
