%TF.GenerationSoftware,KiCad,Pcbnew,9.0.7*%
%TF.CreationDate,2026-05-10T23:39:30+05:30*%
%TF.ProjectId,splitboard left,73706c69-7462-46f6-9172-64206c656674,rev?*%
%TF.SameCoordinates,Original*%
%TF.FileFunction,NonPlated,1,2,NPTH,Drill*%
%TF.FilePolarity,Positive*%
%FSLAX46Y46*%
G04 Gerber Fmt 4.6, Leading zero omitted, Abs format (unit mm)*
G04 Created by KiCad (PCBNEW 9.0.7) date 2026-05-10 23:39:30*
%MOMM*%
%LPD*%
G01*
G04 APERTURE LIST*
%TA.AperFunction,ComponentDrill*%
%ADD10C,1.750000*%
%TD*%
%TA.AperFunction,ComponentDrill*%
%ADD11C,3.050000*%
%TD*%
%TA.AperFunction,ComponentDrill*%
%ADD12C,4.000000*%
%TD*%
G04 APERTURE END LIST*
D10*
%TO.C,SW15*%
X44540500Y-82278750D03*
%TO.C,SW22*%
X44542500Y-101338750D03*
%TO.C,SW1*%
X44570500Y-44295000D03*
%TO.C,SW8*%
X44570500Y-63298750D03*
%TO.C,SW29*%
X49301250Y-120413750D03*
%TO.C,SW15*%
X54700500Y-82278750D03*
%TO.C,SW22*%
X54702500Y-101338750D03*
%TO.C,SW1*%
X54730500Y-44295000D03*
%TO.C,SW8*%
X54730500Y-63298750D03*
%TO.C,SW29*%
X59461250Y-120413750D03*
%TO.C,SW2*%
X68351250Y-44295000D03*
%TO.C,SW16*%
X68351250Y-82338750D03*
%TO.C,SW30*%
X68351250Y-120495000D03*
%TO.C,SW23*%
X68367500Y-101413750D03*
%TO.C,SW9*%
X68392500Y-63338750D03*
%TO.C,SW2*%
X78511250Y-44295000D03*
%TO.C,SW16*%
X78511250Y-82338750D03*
%TO.C,SW30*%
X78511250Y-120495000D03*
%TO.C,SW23*%
X78527500Y-101413750D03*
%TO.C,SW9*%
X78552500Y-63338750D03*
%TO.C,SW10*%
X87392500Y-58563750D03*
%TO.C,SW17*%
X87392500Y-77538750D03*
%TO.C,SW3*%
X87401250Y-39532500D03*
%TO.C,SW31*%
X87417500Y-115638750D03*
%TO.C,SW24*%
X87467500Y-96613750D03*
%TO.C,SW10*%
X97552500Y-58563750D03*
%TO.C,SW17*%
X97552500Y-77538750D03*
%TO.C,SW3*%
X97561250Y-39532500D03*
%TO.C,SW31*%
X97577500Y-115638750D03*
%TO.C,SW24*%
X97627500Y-96613750D03*
%TO.C,SW18*%
X106392500Y-72938750D03*
%TO.C,SW25*%
X106442500Y-92013750D03*
%TO.C,SW4*%
X106451250Y-34770000D03*
%TO.C,SW11*%
X106451250Y-53838750D03*
%TO.C,SW32*%
X106517500Y-111063750D03*
%TO.C,SW18*%
X116552500Y-72938750D03*
%TO.C,SW25*%
X116602500Y-92013750D03*
%TO.C,SW4*%
X116611250Y-34770000D03*
%TO.C,SW11*%
X116611250Y-53838750D03*
%TO.C,SW32*%
X116677500Y-111063750D03*
%TO.C,SW12*%
X125467500Y-58588750D03*
%TO.C,SW26*%
X125492500Y-96738750D03*
%TO.C,SW5*%
X125501250Y-39532500D03*
%TO.C,SW19*%
X125501250Y-77678750D03*
%TO.C,SW33*%
X125517500Y-115803750D03*
%TO.C,SW12*%
X135627500Y-58588750D03*
%TO.C,SW26*%
X135652500Y-96738750D03*
%TO.C,SW5*%
X135661250Y-39532500D03*
%TO.C,SW19*%
X135661250Y-77678750D03*
%TO.C,SW33*%
X135677500Y-115803750D03*
%TO.C,SW13*%
X144517500Y-63363750D03*
%TO.C,SW20*%
X144517500Y-82438750D03*
%TO.C,SW27*%
X144542500Y-101463750D03*
%TO.C,SW6*%
X144551250Y-44295000D03*
%TO.C,SW34*%
X151687500Y-138848750D03*
%TO.C,SW13*%
X154677500Y-63363750D03*
%TO.C,SW20*%
X154677500Y-82438750D03*
%TO.C,SW27*%
X154702500Y-101463750D03*
%TO.C,SW6*%
X154711250Y-44295000D03*
%TO.C,SW34*%
X157515036Y-130526166D03*
%TO.C,SW14*%
X163517500Y-68113750D03*
%TO.C,SW7*%
X163601250Y-44295000D03*
%TO.C,SW35*%
X167312500Y-149773750D03*
%TO.C,SW21*%
X168662500Y-91598750D03*
X168662500Y-101758750D03*
%TO.C,SW35*%
X173140036Y-141451166D03*
%TO.C,SW14*%
X173677500Y-68113750D03*
%TO.C,SW7*%
X173761250Y-44295000D03*
%TO.C,SW38*%
X177412500Y-168623750D03*
X183240036Y-160301166D03*
%TO.C,SW28*%
X183690036Y-126376166D03*
%TO.C,SW37*%
X188362500Y-152973750D03*
%TO.C,SW28*%
X189517572Y-118053582D03*
%TO.C,SW37*%
X194190036Y-144651166D03*
%TO.C,SW36*%
X199301268Y-137312458D03*
X205128804Y-128989874D03*
D11*
%TO.C,SW15*%
X45810500Y-79738750D03*
%TO.C,SW22*%
X45812500Y-98798750D03*
%TO.C,SW1*%
X45840500Y-41755000D03*
%TO.C,SW8*%
X45840500Y-60758750D03*
%TO.C,SW29*%
X50571250Y-117873750D03*
%TO.C,SW15*%
X52160500Y-77198750D03*
%TO.C,SW22*%
X52162500Y-96258750D03*
%TO.C,SW1*%
X52190500Y-39215000D03*
%TO.C,SW8*%
X52190500Y-58218750D03*
%TO.C,SW29*%
X56921250Y-115333750D03*
%TO.C,SW2*%
X69621250Y-41755000D03*
%TO.C,SW16*%
X69621250Y-79798750D03*
%TO.C,SW30*%
X69621250Y-117955000D03*
%TO.C,SW23*%
X69637500Y-98873750D03*
%TO.C,SW9*%
X69662500Y-60798750D03*
%TO.C,SW2*%
X75971250Y-39215000D03*
%TO.C,SW16*%
X75971250Y-77258750D03*
%TO.C,SW30*%
X75971250Y-115415000D03*
%TO.C,SW23*%
X75987500Y-96333750D03*
%TO.C,SW9*%
X76012500Y-58258750D03*
%TO.C,SW10*%
X88662500Y-56023750D03*
%TO.C,SW17*%
X88662500Y-74998750D03*
%TO.C,SW3*%
X88671250Y-36992500D03*
%TO.C,SW31*%
X88687500Y-113098750D03*
%TO.C,SW24*%
X88737500Y-94073750D03*
%TO.C,SW10*%
X95012500Y-53483750D03*
%TO.C,SW17*%
X95012500Y-72458750D03*
%TO.C,SW3*%
X95021250Y-34452500D03*
%TO.C,SW31*%
X95037500Y-110558750D03*
%TO.C,SW24*%
X95087500Y-91533750D03*
%TO.C,SW18*%
X107662500Y-70398750D03*
%TO.C,SW25*%
X107712500Y-89473750D03*
%TO.C,SW4*%
X107721250Y-32230000D03*
%TO.C,SW11*%
X107721250Y-51298750D03*
%TO.C,SW32*%
X107787500Y-108523750D03*
%TO.C,SW18*%
X114012500Y-67858750D03*
%TO.C,SW25*%
X114062500Y-86933750D03*
%TO.C,SW4*%
X114071250Y-29690000D03*
%TO.C,SW11*%
X114071250Y-48758750D03*
%TO.C,SW32*%
X114137500Y-105983750D03*
%TO.C,SW12*%
X126737500Y-56048750D03*
%TO.C,SW26*%
X126762500Y-94198750D03*
%TO.C,SW5*%
X126771250Y-36992500D03*
%TO.C,SW19*%
X126771250Y-75138750D03*
%TO.C,SW33*%
X126787500Y-113263750D03*
%TO.C,SW12*%
X133087500Y-53508750D03*
%TO.C,SW26*%
X133112500Y-91658750D03*
%TO.C,SW5*%
X133121250Y-34452500D03*
%TO.C,SW19*%
X133121250Y-72598750D03*
%TO.C,SW33*%
X133137500Y-110723750D03*
%TO.C,SW13*%
X145787500Y-60823750D03*
%TO.C,SW20*%
X145787500Y-79898750D03*
%TO.C,SW27*%
X145812500Y-98923750D03*
%TO.C,SW6*%
X145821250Y-41755000D03*
%TO.C,SW34*%
X150335296Y-136351543D03*
X151896860Y-129693044D03*
%TO.C,SW13*%
X152137500Y-58283750D03*
%TO.C,SW20*%
X152137500Y-77358750D03*
%TO.C,SW27*%
X152162500Y-96383750D03*
%TO.C,SW6*%
X152171250Y-39215000D03*
%TO.C,SW14*%
X164787500Y-65573750D03*
%TO.C,SW7*%
X164871250Y-41755000D03*
%TO.C,SW35*%
X165960296Y-147276543D03*
X167521860Y-140618044D03*
%TO.C,SW14*%
X171137500Y-63033750D03*
%TO.C,SW21*%
X171202500Y-92868750D03*
%TO.C,SW7*%
X171221250Y-39215000D03*
%TO.C,SW21*%
X173742500Y-99218750D03*
%TO.C,SW38*%
X176060296Y-166126543D03*
X177621860Y-159468044D03*
%TO.C,SW28*%
X182337832Y-123878959D03*
X183899396Y-117220460D03*
%TO.C,SW37*%
X187010296Y-150476543D03*
X188571860Y-143818044D03*
%TO.C,SW36*%
X197949064Y-134815251D03*
X199510628Y-128156752D03*
D12*
%TO.C,SW15*%
X49620500Y-82278750D03*
%TO.C,SW22*%
X49622500Y-101338750D03*
%TO.C,SW1*%
X49650500Y-44295000D03*
%TO.C,SW8*%
X49650500Y-63298750D03*
%TO.C,SW29*%
X54381250Y-120413750D03*
%TO.C,SW2*%
X73431250Y-44295000D03*
%TO.C,SW16*%
X73431250Y-82338750D03*
%TO.C,SW30*%
X73431250Y-120495000D03*
%TO.C,SW23*%
X73447500Y-101413750D03*
%TO.C,SW9*%
X73472500Y-63338750D03*
%TO.C,SW10*%
X92472500Y-58563750D03*
%TO.C,SW17*%
X92472500Y-77538750D03*
%TO.C,SW3*%
X92481250Y-39532500D03*
%TO.C,SW31*%
X92497500Y-115638750D03*
%TO.C,SW24*%
X92547500Y-96613750D03*
%TO.C,SW18*%
X111472500Y-72938750D03*
%TO.C,SW25*%
X111522500Y-92013750D03*
%TO.C,SW4*%
X111531250Y-34770000D03*
%TO.C,SW11*%
X111531250Y-53838750D03*
%TO.C,SW32*%
X111597500Y-111063750D03*
%TO.C,SW12*%
X130547500Y-58588750D03*
%TO.C,SW26*%
X130572500Y-96738750D03*
%TO.C,SW5*%
X130581250Y-39532500D03*
%TO.C,SW19*%
X130581250Y-77678750D03*
%TO.C,SW33*%
X130597500Y-115803750D03*
%TO.C,SW13*%
X149597500Y-63363750D03*
%TO.C,SW20*%
X149597500Y-82438750D03*
%TO.C,SW27*%
X149622500Y-101463750D03*
%TO.C,SW6*%
X149631250Y-44295000D03*
%TO.C,SW34*%
X154601268Y-134687458D03*
%TO.C,SW14*%
X168597500Y-68113750D03*
%TO.C,SW21*%
X168662500Y-96678750D03*
%TO.C,SW7*%
X168681250Y-44295000D03*
%TO.C,SW35*%
X170226268Y-145612458D03*
%TO.C,SW38*%
X180326268Y-164462458D03*
%TO.C,SW28*%
X186603804Y-122214874D03*
%TO.C,SW37*%
X191276268Y-148812458D03*
%TO.C,SW36*%
X202215036Y-133151166D03*
M02*
