%TF.GenerationSoftware,KiCad,Pcbnew,9.0.7*%
%TF.CreationDate,2026-05-10T23:39:27+05:30*%
%TF.ProjectId,splitboard left,73706c69-7462-46f6-9172-64206c656674,rev?*%
%TF.SameCoordinates,Original*%
%TF.FileFunction,Paste,Top*%
%TF.FilePolarity,Positive*%
%FSLAX46Y46*%
G04 Gerber Fmt 4.6, Leading zero omitted, Abs format (unit mm)*
G04 Created by KiCad (PCBNEW 9.0.7) date 2026-05-10 23:39:27*
%MOMM*%
%LPD*%
G01*
G04 APERTURE LIST*
%ADD10R,1.500000X0.820000*%
G04 APERTURE END LIST*
D10*
%TO.C,L50*%
X152300000Y-35910000D03*
X152300000Y-34410000D03*
X157900000Y-34410000D03*
X157900000Y-35910000D03*
%TD*%
%TO.C,L42*%
X76680000Y-35600000D03*
X76680000Y-34100000D03*
X82280000Y-34100000D03*
X82280000Y-35600000D03*
%TD*%
%TO.C,L52*%
X172540000Y-36220000D03*
X172540000Y-34720000D03*
X178140000Y-34720000D03*
X178140000Y-36220000D03*
%TD*%
%TO.C,L40*%
X54440000Y-36070000D03*
X54440000Y-34570000D03*
X60040000Y-34570000D03*
X60040000Y-36070000D03*
%TD*%
%TO.C,L39*%
X42730000Y-36100250D03*
X42730000Y-34600250D03*
X48330000Y-34600250D03*
X48330000Y-36100250D03*
%TD*%
%TO.C,L43*%
X87690000Y-31290000D03*
X87690000Y-29790000D03*
X93290000Y-29790000D03*
X93290000Y-31290000D03*
%TD*%
%TO.C,L49*%
X141600000Y-36100250D03*
X141600000Y-34600250D03*
X147200000Y-34600250D03*
X147200000Y-36100250D03*
%TD*%
%TO.C,L53*%
X162500000Y-35930000D03*
X162500000Y-34430000D03*
X168100000Y-34430000D03*
X168100000Y-35930000D03*
%TD*%
%TO.C,L48*%
X133980000Y-31380000D03*
X133980000Y-29880000D03*
X139580000Y-29880000D03*
X139580000Y-31380000D03*
%TD*%
%TO.C,L41*%
X65420000Y-36180000D03*
X65420000Y-34680000D03*
X71020000Y-34680000D03*
X71020000Y-36180000D03*
%TD*%
%TO.C,L46*%
X114140000Y-26450000D03*
X114140000Y-24950000D03*
X119740000Y-24950000D03*
X119740000Y-26450000D03*
%TD*%
%TO.C,L44*%
X97900000Y-30860000D03*
X97900000Y-29360000D03*
X103500000Y-29360000D03*
X103500000Y-30860000D03*
%TD*%
%TO.C,L47*%
X123890000Y-31190250D03*
X123890000Y-29690250D03*
X129490000Y-29690250D03*
X129490000Y-31190250D03*
%TD*%
%TO.C,L45*%
X103690000Y-26570000D03*
X103690000Y-25070000D03*
X109290000Y-25070000D03*
X109290000Y-26570000D03*
%TD*%
M02*
