%TF.GenerationSoftware,KiCad,Pcbnew,9.0.7*%
%TF.CreationDate,2026-05-10T23:39:27+05:30*%
%TF.ProjectId,splitboard left,73706c69-7462-46f6-9172-64206c656674,rev?*%
%TF.SameCoordinates,Original*%
%TF.FileFunction,Soldermask,Top*%
%TF.FilePolarity,Negative*%
%FSLAX46Y46*%
G04 Gerber Fmt 4.6, Leading zero omitted, Abs format (unit mm)*
G04 Created by KiCad (PCBNEW 9.0.7) date 2026-05-10 23:39:27*
%MOMM*%
%LPD*%
G01*
G04 APERTURE LIST*
G04 Aperture macros list*
%AMRoundRect*
0 Rectangle with rounded corners*
0 $1 Rounding radius*
0 $2 $3 $4 $5 $6 $7 $8 $9 X,Y pos of 4 corners*
0 Add a 4 corners polygon primitive as box body*
4,1,4,$2,$3,$4,$5,$6,$7,$8,$9,$2,$3,0*
0 Add four circle primitives for the rounded corners*
1,1,$1+$1,$2,$3*
1,1,$1+$1,$4,$5*
1,1,$1+$1,$6,$7*
1,1,$1+$1,$8,$9*
0 Add four rect primitives between the rounded corners*
20,1,$1+$1,$2,$3,$4,$5,0*
20,1,$1+$1,$4,$5,$6,$7,0*
20,1,$1+$1,$6,$7,$8,$9,0*
20,1,$1+$1,$8,$9,$2,$3,0*%
G04 Aperture macros list end*
%ADD10O,1.524800X2.845600*%
%ADD11O,2.845600X1.524800*%
%ADD12C,1.750000*%
%ADD13C,3.050000*%
%ADD14C,4.000000*%
%ADD15R,1.500000X0.820000*%
%ADD16RoundRect,0.250000X-1.050000X-0.550000X1.050000X-0.550000X1.050000X0.550000X-1.050000X0.550000X0*%
%ADD17O,2.600000X1.600000*%
G04 APERTURE END LIST*
D10*
%TO.C,D10*%
X102042500Y-63648750D03*
X102042500Y-56028750D03*
%TD*%
D11*
%TO.C,D21*%
X166062500Y-84448750D03*
X173682500Y-84448750D03*
%TD*%
D12*
%TO.C,SW11*%
X106451250Y-53838750D03*
D13*
X107721250Y-51298750D03*
D14*
X111531250Y-53838750D03*
D13*
X114071250Y-48758750D03*
D12*
X116611250Y-53838750D03*
%TD*%
%TO.C,SW32*%
X106517500Y-111063750D03*
D13*
X107787500Y-108523750D03*
D14*
X111597500Y-111063750D03*
D13*
X114137500Y-105983750D03*
D12*
X116677500Y-111063750D03*
%TD*%
D10*
%TO.C,D22*%
X59832500Y-105448750D03*
X59832500Y-97828750D03*
%TD*%
D15*
%TO.C,L50*%
X152300000Y-35910000D03*
X152300000Y-34410000D03*
X157900000Y-34410000D03*
X157900000Y-35910000D03*
%TD*%
D10*
%TO.C,D5*%
X138887500Y-48723750D03*
X138887500Y-41103750D03*
%TD*%
D12*
%TO.C,SW5*%
X125501250Y-39532500D03*
D13*
X126771250Y-36992500D03*
D14*
X130581250Y-39532500D03*
D13*
X133121250Y-34452500D03*
D12*
X135661250Y-39532500D03*
%TD*%
D15*
%TO.C,L42*%
X76680000Y-35600000D03*
X76680000Y-34100000D03*
X82280000Y-34100000D03*
X82280000Y-35600000D03*
%TD*%
D12*
%TO.C,SW33*%
X125517500Y-115803750D03*
D13*
X126787500Y-113263750D03*
D14*
X130597500Y-115803750D03*
D13*
X133137500Y-110723750D03*
D12*
X135677500Y-115803750D03*
%TD*%
D11*
%TO.C,D38*%
X195162500Y-159338750D03*
X187542500Y-159338750D03*
%TD*%
D10*
%TO.C,D9*%
X82262500Y-71233750D03*
X82262500Y-63613750D03*
%TD*%
%TO.C,D12*%
X139042500Y-67498750D03*
X139042500Y-59878750D03*
%TD*%
D12*
%TO.C,SW1*%
X44570500Y-44295000D03*
D13*
X45840500Y-41755000D03*
D14*
X49650500Y-44295000D03*
D13*
X52190500Y-39215000D03*
D12*
X54730500Y-44295000D03*
%TD*%
D10*
%TO.C,D14*%
X178542500Y-73218750D03*
X178542500Y-65598750D03*
%TD*%
D12*
%TO.C,SW8*%
X44570500Y-63298750D03*
D13*
X45840500Y-60758750D03*
D14*
X49650500Y-63298750D03*
D13*
X52190500Y-58218750D03*
D12*
X54730500Y-63298750D03*
%TD*%
D10*
%TO.C,D6*%
X157431250Y-54105000D03*
X157431250Y-46485000D03*
%TD*%
D11*
%TO.C,D37*%
X206466052Y-142982011D03*
X198846052Y-142982011D03*
%TD*%
%TO.C,D34*%
X156672500Y-123438750D03*
X164292500Y-123438750D03*
%TD*%
D15*
%TO.C,L52*%
X172540000Y-36220000D03*
X172540000Y-34720000D03*
X178140000Y-34720000D03*
X178140000Y-36220000D03*
%TD*%
D11*
%TO.C,D35*%
X157872500Y-156828750D03*
X165492500Y-156828750D03*
%TD*%
D12*
%TO.C,SW13*%
X144517500Y-63363750D03*
D13*
X145787500Y-60823750D03*
D14*
X149597500Y-63363750D03*
D13*
X152137500Y-58283750D03*
D12*
X154677500Y-63363750D03*
%TD*%
D10*
%TO.C,D4*%
X120162500Y-44583750D03*
X120162500Y-36963750D03*
%TD*%
D12*
%TO.C,SW37*%
X188362500Y-152973750D03*
D13*
X187010296Y-150476543D03*
D14*
X191276268Y-148812458D03*
D13*
X188571860Y-143818044D03*
D12*
X194190036Y-144651166D03*
%TD*%
%TO.C,SW34*%
X151687500Y-138848750D03*
D13*
X150335296Y-136351543D03*
D14*
X154601268Y-134687458D03*
D13*
X151896860Y-129693044D03*
D12*
X157515036Y-130526166D03*
%TD*%
D10*
%TO.C,D31*%
X100792500Y-123398750D03*
X100792500Y-115778750D03*
%TD*%
D12*
%TO.C,SW7*%
X163601250Y-44295000D03*
D13*
X164871250Y-41755000D03*
D14*
X168681250Y-44295000D03*
D13*
X171221250Y-39215000D03*
D12*
X173761250Y-44295000D03*
%TD*%
%TO.C,SW6*%
X144551250Y-44295000D03*
D13*
X145821250Y-41755000D03*
D14*
X149631250Y-44295000D03*
D13*
X152171250Y-39215000D03*
D12*
X154711250Y-44295000D03*
%TD*%
D15*
%TO.C,L40*%
X54440000Y-36070000D03*
X54440000Y-34570000D03*
X60040000Y-34570000D03*
X60040000Y-36070000D03*
%TD*%
D12*
%TO.C,SW16*%
X68351250Y-82338750D03*
D13*
X69621250Y-79798750D03*
D14*
X73431250Y-82338750D03*
D13*
X75971250Y-77258750D03*
D12*
X78511250Y-82338750D03*
%TD*%
%TO.C,SW2*%
X68351250Y-44295000D03*
D13*
X69621250Y-41755000D03*
D14*
X73431250Y-44295000D03*
D13*
X75971250Y-39215000D03*
D12*
X78511250Y-44295000D03*
%TD*%
D10*
%TO.C,D7*%
X177587500Y-54783750D03*
X177587500Y-47163750D03*
%TD*%
D12*
%TO.C,SW31*%
X87417500Y-115638750D03*
D13*
X88687500Y-113098750D03*
D14*
X92497500Y-115638750D03*
D13*
X95037500Y-110558750D03*
D12*
X97577500Y-115638750D03*
%TD*%
D15*
%TO.C,L39*%
X42730000Y-36100250D03*
X42730000Y-34600250D03*
X48330000Y-34600250D03*
X48330000Y-36100250D03*
%TD*%
D10*
%TO.C,D11*%
X119331250Y-63648750D03*
X119331250Y-56028750D03*
%TD*%
D12*
%TO.C,SW26*%
X125492500Y-96738750D03*
D13*
X126762500Y-94198750D03*
D14*
X130572500Y-96738750D03*
D13*
X133112500Y-91658750D03*
D12*
X135652500Y-96738750D03*
%TD*%
D10*
%TO.C,D1*%
X61187500Y-49583750D03*
X61187500Y-41963750D03*
%TD*%
D12*
%TO.C,SW12*%
X125467500Y-58588750D03*
D13*
X126737500Y-56048750D03*
D14*
X130547500Y-58588750D03*
D13*
X133087500Y-53508750D03*
D12*
X135627500Y-58588750D03*
%TD*%
%TO.C,SW18*%
X106392500Y-72938750D03*
D13*
X107662500Y-70398750D03*
D14*
X111472500Y-72938750D03*
D13*
X114012500Y-67858750D03*
D12*
X116552500Y-72938750D03*
%TD*%
D10*
%TO.C,D2*%
X83187500Y-49233750D03*
X83187500Y-41613750D03*
%TD*%
D12*
%TO.C,SW28*%
X183690036Y-126376166D03*
D13*
X182337832Y-123878959D03*
D14*
X186603804Y-122214874D03*
D13*
X183899396Y-117220460D03*
D12*
X189517572Y-118053582D03*
%TD*%
D10*
%TO.C,D17*%
X101472500Y-84608750D03*
X101472500Y-76988750D03*
%TD*%
D12*
%TO.C,SW35*%
X167312500Y-149773750D03*
D13*
X165960296Y-147276543D03*
D14*
X170226268Y-145612458D03*
D13*
X167521860Y-140618044D03*
D12*
X173140036Y-141451166D03*
%TD*%
D11*
%TO.C,D28*%
X176112500Y-116188750D03*
X168492500Y-116188750D03*
%TD*%
D10*
%TO.C,D16*%
X82782500Y-87808750D03*
X82782500Y-80188750D03*
%TD*%
%TO.C,D8*%
X61212500Y-69758750D03*
X61212500Y-62138750D03*
%TD*%
D12*
%TO.C,SW10*%
X87392500Y-58563750D03*
D13*
X88662500Y-56023750D03*
D14*
X92472500Y-58563750D03*
D13*
X95012500Y-53483750D03*
D12*
X97552500Y-58563750D03*
%TD*%
D10*
%TO.C,D20*%
X158312500Y-90638750D03*
X158312500Y-83018750D03*
%TD*%
D15*
%TO.C,L43*%
X87690000Y-31290000D03*
X87690000Y-29790000D03*
X93290000Y-29790000D03*
X93290000Y-31290000D03*
%TD*%
D10*
%TO.C,D24*%
X101572500Y-103558750D03*
X101572500Y-95938750D03*
%TD*%
D12*
%TO.C,SW3*%
X87401250Y-39532500D03*
D13*
X88671250Y-36992500D03*
D14*
X92481250Y-39532500D03*
D13*
X95021250Y-34452500D03*
D12*
X97561250Y-39532500D03*
%TD*%
D15*
%TO.C,L49*%
X141600000Y-36100250D03*
X141600000Y-34600250D03*
X147200000Y-34600250D03*
X147200000Y-36100250D03*
%TD*%
D12*
%TO.C,SW17*%
X87392500Y-77538750D03*
D13*
X88662500Y-74998750D03*
D14*
X92472500Y-77538750D03*
D13*
X95012500Y-72458750D03*
D12*
X97552500Y-77538750D03*
%TD*%
D10*
%TO.C,D18*%
X120052500Y-80408750D03*
X120052500Y-72788750D03*
%TD*%
D15*
%TO.C,L53*%
X162500000Y-35930000D03*
X162500000Y-34430000D03*
X168100000Y-34430000D03*
X168100000Y-35930000D03*
%TD*%
D16*
%TO.C,A1*%
X190730000Y-28520000D03*
D17*
X190730000Y-31060000D03*
X190730000Y-33600000D03*
X190730000Y-36140000D03*
X190730000Y-38680000D03*
X190730000Y-41220000D03*
X190730000Y-43760000D03*
X190730000Y-46300000D03*
X190730000Y-48840000D03*
X190730000Y-51380000D03*
X190730000Y-53920000D03*
X190730000Y-56460000D03*
X190730000Y-59000000D03*
X190730000Y-61540000D03*
X190730000Y-64080000D03*
X190730000Y-66620000D03*
X210450000Y-66620000D03*
X210450000Y-64080000D03*
X210450000Y-61540000D03*
X210450000Y-59000000D03*
X210450000Y-56460000D03*
X210450000Y-53920000D03*
X210450000Y-51380000D03*
X210450000Y-48840000D03*
X210450000Y-46300000D03*
X210450000Y-43760000D03*
X210450000Y-41220000D03*
X210450000Y-38680000D03*
%TD*%
D12*
%TO.C,SW19*%
X125501250Y-77678750D03*
D13*
X126771250Y-75138750D03*
D14*
X130581250Y-77678750D03*
D13*
X133121250Y-72598750D03*
D12*
X135661250Y-77678750D03*
%TD*%
D15*
%TO.C,L48*%
X133980000Y-31380000D03*
X133980000Y-29880000D03*
X139580000Y-29880000D03*
X139580000Y-31380000D03*
%TD*%
D10*
%TO.C,D33*%
X140082500Y-122678750D03*
X140082500Y-115058750D03*
%TD*%
D12*
%TO.C,SW9*%
X68392500Y-63338750D03*
D13*
X69662500Y-60798750D03*
D14*
X73472500Y-63338750D03*
D13*
X76012500Y-58258750D03*
D12*
X78552500Y-63338750D03*
%TD*%
%TO.C,SW4*%
X106451250Y-34770000D03*
D13*
X107721250Y-32230000D03*
D14*
X111531250Y-34770000D03*
D13*
X114071250Y-29690000D03*
D12*
X116611250Y-34770000D03*
%TD*%
%TO.C,SW38*%
X177412500Y-168623750D03*
D13*
X176060296Y-166126543D03*
D14*
X180326268Y-164462458D03*
D13*
X177621860Y-159468044D03*
D12*
X183240036Y-160301166D03*
%TD*%
D10*
%TO.C,D29*%
X63222500Y-128673750D03*
X63222500Y-121053750D03*
%TD*%
%TO.C,D3*%
X102262500Y-45308750D03*
X102262500Y-37688750D03*
%TD*%
%TO.C,D23*%
X83382500Y-106638750D03*
X83382500Y-99018750D03*
%TD*%
%TO.C,D13*%
X157922500Y-71978750D03*
X157922500Y-64358750D03*
%TD*%
D15*
%TO.C,L41*%
X65420000Y-36180000D03*
X65420000Y-34680000D03*
X71020000Y-34680000D03*
X71020000Y-36180000D03*
%TD*%
D12*
%TO.C,SW15*%
X44540500Y-82278750D03*
D13*
X45810500Y-79738750D03*
D14*
X49620500Y-82278750D03*
D13*
X52160500Y-77198750D03*
D12*
X54700500Y-82278750D03*
%TD*%
D15*
%TO.C,L46*%
X114140000Y-26450000D03*
X114140000Y-24950000D03*
X119740000Y-24950000D03*
X119740000Y-26450000D03*
%TD*%
D10*
%TO.C,D15*%
X61202500Y-88198750D03*
X61202500Y-80578750D03*
%TD*%
%TO.C,D25*%
X119852500Y-100378750D03*
X119852500Y-92758750D03*
%TD*%
D11*
%TO.C,D36*%
X207682500Y-119728750D03*
X200062500Y-119728750D03*
%TD*%
D10*
%TO.C,D30*%
X82956250Y-126908750D03*
X82956250Y-119288750D03*
%TD*%
D12*
%TO.C,SW29*%
X49301250Y-120413750D03*
D13*
X50571250Y-117873750D03*
D14*
X54381250Y-120413750D03*
D13*
X56921250Y-115333750D03*
D12*
X59461250Y-120413750D03*
%TD*%
D10*
%TO.C,D19*%
X138532500Y-85768750D03*
X138532500Y-78148750D03*
%TD*%
D12*
%TO.C,SW20*%
X144517500Y-82438750D03*
D13*
X145787500Y-79898750D03*
D14*
X149597500Y-82438750D03*
D13*
X152137500Y-77358750D03*
D12*
X154677500Y-82438750D03*
%TD*%
%TO.C,SW30*%
X68351250Y-120495000D03*
D13*
X69621250Y-117955000D03*
D14*
X73431250Y-120495000D03*
D13*
X75971250Y-115415000D03*
D12*
X78511250Y-120495000D03*
%TD*%
%TO.C,SW21*%
X168662500Y-91598750D03*
D13*
X171202500Y-92868750D03*
D14*
X168662500Y-96678750D03*
D13*
X173742500Y-99218750D03*
D12*
X168662500Y-101758750D03*
%TD*%
%TO.C,SW24*%
X87467500Y-96613750D03*
D13*
X88737500Y-94073750D03*
D14*
X92547500Y-96613750D03*
D13*
X95087500Y-91533750D03*
D12*
X97627500Y-96613750D03*
%TD*%
D10*
%TO.C,D32*%
X119982500Y-119323750D03*
X119982500Y-111703750D03*
%TD*%
D12*
%TO.C,SW36*%
X199301268Y-137312458D03*
D13*
X197949064Y-134815251D03*
D14*
X202215036Y-133151166D03*
D13*
X199510628Y-128156752D03*
D12*
X205128804Y-128989874D03*
%TD*%
%TO.C,SW25*%
X106442500Y-92013750D03*
D13*
X107712500Y-89473750D03*
D14*
X111522500Y-92013750D03*
D13*
X114062500Y-86933750D03*
D12*
X116602500Y-92013750D03*
%TD*%
%TO.C,SW27*%
X144542500Y-101463750D03*
D13*
X145812500Y-98923750D03*
D14*
X149622500Y-101463750D03*
D13*
X152162500Y-96383750D03*
D12*
X154702500Y-101463750D03*
%TD*%
D10*
%TO.C,D27*%
X158892500Y-108818750D03*
X158892500Y-101198750D03*
%TD*%
%TO.C,D26*%
X139132500Y-104628750D03*
X139132500Y-97008750D03*
%TD*%
D12*
%TO.C,SW23*%
X68367500Y-101413750D03*
D13*
X69637500Y-98873750D03*
D14*
X73447500Y-101413750D03*
D13*
X75987500Y-96333750D03*
D12*
X78527500Y-101413750D03*
%TD*%
D15*
%TO.C,L44*%
X97900000Y-30860000D03*
X97900000Y-29360000D03*
X103500000Y-29360000D03*
X103500000Y-30860000D03*
%TD*%
%TO.C,L47*%
X123890000Y-31190250D03*
X123890000Y-29690250D03*
X129490000Y-29690250D03*
X129490000Y-31190250D03*
%TD*%
D12*
%TO.C,SW14*%
X163517500Y-68113750D03*
D13*
X164787500Y-65573750D03*
D14*
X168597500Y-68113750D03*
D13*
X171137500Y-63033750D03*
D12*
X173677500Y-68113750D03*
%TD*%
%TO.C,SW22*%
X44542500Y-101338750D03*
D13*
X45812500Y-98798750D03*
D14*
X49622500Y-101338750D03*
D13*
X52162500Y-96258750D03*
D12*
X54702500Y-101338750D03*
%TD*%
D15*
%TO.C,L45*%
X103690000Y-26570000D03*
X103690000Y-25070000D03*
X109290000Y-25070000D03*
X109290000Y-26570000D03*
%TD*%
M02*
